<svg width="195" height="200" viewBox="0 0 195 200" fill="none" xmlns="http://www.w3.org/2000/svg">
<path d="M16.399 188.9C14.8657 188.9 13.249 188.717 11.549 188.35C9.88236 188.017 8.48236 187.483 7.34902 186.75C5.78236 185.683 4.63236 184.317 3.89902 182.65C3.16569 180.983 2.79902 179.167 2.79902 177.2C2.79902 175.233 3.11569 173.183 3.74902 171.05C4.41569 168.917 5.36569 166.833 6.59902 164.8C7.83236 162.733 9.28236 160.833 10.949 159.1C12.649 157.333 14.549 155.833 16.649 154.6C18.749 153.367 20.9824 152.517 23.349 152.05C24.849 151.75 26.2824 151.6 27.649 151.6C30.3157 151.6 32.449 152.133 34.049 153.2C35.649 154.233 36.449 155.567 36.449 157.2C36.449 157.533 36.4157 157.867 36.349 158.2C36.3157 158.5 36.2157 158.833 36.049 159.2C35.6824 160.167 35.0657 161.033 34.199 161.8C33.3657 162.533 32.399 163.1 31.299 163.5C30.2324 163.9 29.1324 164.067 27.999 164C27.4657 163.933 26.999 163.75 26.599 163.45C26.2324 163.117 26.049 162.717 26.049 162.25C26.049 161.783 26.249 161.283 26.649 160.75C27.0157 160.883 27.4324 160.95 27.899 160.95C28.7324 160.95 29.549 160.75 30.349 160.35C31.149 159.95 31.8157 159.4 32.349 158.7C32.8824 158 33.149 157.217 33.149 156.35C33.149 155.183 32.749 154.417 31.949 154.05C31.149 153.65 30.249 153.45 29.249 153.45C28.5824 153.45 27.9157 153.517 27.249 153.65C26.6157 153.75 26.099 153.85 25.699 153.95C23.799 154.45 21.949 155.417 20.149 156.85C18.349 158.25 16.699 159.917 15.199 161.85C13.7324 163.783 12.499 165.783 11.499 167.85C10.8657 169.183 10.2824 170.8 9.74902 172.7C9.21569 174.6 8.94902 176.467 8.94902 178.3C8.94902 179.267 9.03236 180.2 9.19902 181.1C9.39902 181.967 9.71569 182.767 10.149 183.5C10.849 184.7 11.8157 185.533 13.049 186C14.3157 186.467 15.6324 186.7 16.999 186.7C18.0324 186.7 19.049 186.617 20.049 186.45C21.0824 186.25 22.0157 186 22.849 185.7C23.9157 185.333 24.949 184.833 25.949 184.2C26.949 183.533 27.8657 182.783 28.699 181.95C29.6324 180.983 30.4157 179.933 31.049 178.8C31.7157 177.667 32.149 176.483 32.349 175.25H29.699C28.2324 175.25 26.7157 175.267 25.149 175.3C23.5824 175.3 22.399 175.367 21.599 175.5C21.599 175.5 21.7157 175.3 21.949 174.9C22.1824 174.467 22.4824 173.983 22.849 173.45C23.2157 172.883 23.599 172.4 23.999 172C24.4324 171.567 24.8324 171.35 25.199 171.35H39.849C39.6157 172.617 39.199 173.517 38.599 174.05C37.999 174.583 37.249 174.933 36.349 175.1C36.1824 175.567 36.0157 176.033 35.849 176.5C35.6824 176.933 35.5157 177.283 35.349 177.55C33.4824 181.383 30.9324 184.233 27.699 186.1C24.4657 187.967 20.699 188.9 16.399 188.9ZM41.6107 187.3C40.6774 187.3 39.9774 186.967 39.5107 186.3C39.0441 185.6 38.8107 184.667 38.8107 183.5C38.8107 183.333 38.8107 183.167 38.8107 183C38.8107 182.833 38.8274 182.667 38.8607 182.5C39.0274 181.233 39.3107 179.8 39.7107 178.2C40.1441 176.6 40.6441 174.917 41.2107 173.15C41.5441 172.15 41.9607 170.9 42.4607 169.4C42.9941 167.867 43.6107 166.233 44.3107 164.5C45.0107 162.733 45.7774 160.983 46.6107 159.25C47.4774 157.517 48.4274 155.95 49.4607 154.55C50.4941 153.117 51.5774 151.967 52.7107 151.1C53.8774 150.233 55.1107 149.8 56.4107 149.8C57.4774 149.8 58.2107 150.067 58.6107 150.6C59.0107 151.1 59.2107 151.7 59.2107 152.4C59.2107 153.133 59.0774 153.883 58.8107 154.65C58.5441 155.383 58.2774 156 58.0107 156.5C57.4107 157.7 56.6274 159.05 55.6607 160.55C54.6941 162.05 53.6774 163.45 52.6107 164.75C51.9774 165.583 51.1941 166.517 50.2607 167.55C49.3274 168.583 48.4441 169.533 47.6107 170.4C46.8107 171.267 46.2274 171.867 45.8607 172.2L45.0607 174.5C44.8274 175.133 44.5941 175.883 44.3607 176.75C44.1607 177.617 43.9774 178.483 43.8107 179.35C43.6774 180.183 43.5607 180.917 43.4607 181.55C43.4274 181.683 43.4107 181.817 43.4107 181.95C43.4107 182.083 43.4107 182.2 43.4107 182.3C43.4107 183.3 43.7941 183.8 44.5607 183.8C45.0274 183.8 45.6107 183.583 46.3107 183.15C46.9774 182.75 47.6107 182.233 48.2107 181.6C48.8441 180.933 49.2941 180.433 49.5607 180.1C50.2274 179.233 50.8607 178.317 51.4607 177.35C52.0607 176.35 52.5774 175.433 53.0107 174.6C53.1774 174.333 53.2941 174.2 53.3607 174.2C53.5607 174.2 53.6607 174.483 53.6607 175.05C53.6607 175.317 53.6107 175.633 53.5107 176C53.4441 176.333 53.3274 176.65 53.1607 176.95C52.6941 177.75 52.1441 178.633 51.5107 179.6C50.8774 180.567 50.2274 181.5 49.5607 182.4C49.0607 183.067 48.3607 183.783 47.4607 184.55C46.5607 185.317 45.5941 185.967 44.5607 186.5C43.5274 187.033 42.5441 187.3 41.6107 187.3ZM46.8607 169.35C48.5274 167.383 50.2107 165.283 51.9107 163.05C53.6441 160.783 55.0774 158.483 56.2107 156.15C56.2774 155.983 56.4274 155.65 56.6607 155.15C56.8941 154.65 57.1107 154.1 57.3107 153.5C57.5107 152.867 57.6107 152.333 57.6107 151.9C57.6107 151.333 57.3941 151.05 56.9607 151.05H56.6107C56.1774 151.05 55.6607 151.35 55.0607 151.95C54.4941 152.55 53.9107 153.35 53.3107 154.35C52.5441 155.617 51.7941 157.083 51.0607 158.75C50.3274 160.383 49.6107 162.117 48.9107 163.95C48.2107 165.783 47.5274 167.583 46.8607 169.35ZM66.5643 187.3C65.5309 187.3 64.8143 186.9 64.4143 186.1C64.0476 185.3 63.8643 184.317 63.8643 183.15C63.8643 182.083 63.9643 181.033 64.1643 180C64.2643 179.533 64.3643 179.067 64.4643 178.6C64.5976 178.1 64.7476 177.583 64.9143 177.05C64.3476 178.083 63.7476 179.083 63.1143 180.05C62.5143 181.017 61.8976 181.867 61.2643 182.6C60.1976 183.9 59.0643 184.983 57.8643 185.85C56.6976 186.717 55.5309 187.15 54.3643 187.15C53.4309 187.15 52.6309 186.817 51.9643 186.15C51.3309 185.45 51.0143 184.25 51.0143 182.55C51.0143 180.817 51.3143 179.033 51.9143 177.2C52.5143 175.367 53.3476 173.667 54.4143 172.1C55.5143 170.5 56.7976 169.217 58.2643 168.25C59.7643 167.283 61.3976 166.8 63.1643 166.8C63.7309 166.8 64.3476 166.883 65.0143 167.05C65.6809 167.217 66.2976 167.533 66.8643 168C67.4309 168.433 67.8143 169.05 68.0143 169.85C68.0476 169.783 68.0809 169.733 68.1143 169.7C68.1809 169.667 68.2309 169.633 68.2643 169.6C68.7309 168.867 69.2643 168.25 69.8643 167.75C70.4643 167.25 71.1309 167 71.8643 167C72.2309 167 72.7476 167.017 73.4143 167.05C74.0809 167.083 74.5643 167.083 74.8643 167.05C74.6976 167.183 74.4643 167.45 74.1643 167.85C73.8976 168.25 73.6476 168.667 73.4143 169.1C73.1809 169.5 72.9976 169.817 72.8643 170.05C71.9643 171.783 71.1476 173.5 70.4143 175.2C69.6809 176.9 69.1143 178.533 68.7143 180.1C68.6143 180.433 68.5476 180.75 68.5143 181.05C68.4809 181.317 68.4643 181.583 68.4643 181.85C68.4643 182.717 68.7476 183.15 69.3143 183.15C69.8476 183.15 70.5143 182.817 71.3143 182.15C72.4809 181.217 73.4976 180.05 74.3643 178.65C75.2643 177.25 76.0476 175.9 76.7143 174.6C76.8476 174.367 76.9643 174.25 77.0643 174.25C77.2643 174.25 77.3643 174.533 77.3643 175.1C77.3643 175.367 77.3143 175.667 77.2143 176C77.1476 176.333 77.0309 176.65 76.8643 176.95C76.3976 177.75 75.7809 178.733 75.0143 179.9C74.2809 181.067 73.4476 182.217 72.5143 183.35C71.5809 184.45 70.5976 185.383 69.5643 186.15C68.5643 186.917 67.5643 187.3 66.5643 187.3ZM56.6143 182.95C56.7143 182.983 56.8643 183 57.0643 183C57.6976 183 58.3809 182.733 59.1143 182.2C59.8476 181.667 60.5809 180.983 61.3143 180.15C62.0476 179.283 62.6976 178.417 63.2643 177.55C64.7309 175.217 65.8143 173.467 66.5143 172.3C67.2143 171.133 67.6143 170.467 67.7143 170.3C67.5476 169.733 67.2476 169.317 66.8143 169.05C66.4143 168.783 65.9309 168.65 65.3643 168.65C64.6309 168.65 63.8476 168.85 63.0143 169.25C62.2143 169.65 61.5309 170.133 60.9643 170.7C60.0976 171.567 59.2643 172.683 58.4643 174.05C57.6976 175.417 57.0643 176.767 56.5643 178.1C56.0976 179.433 55.8643 180.55 55.8643 181.45C55.8643 182.283 56.1143 182.783 56.6143 182.95ZM99.6971 187.3C98.5637 187.3 97.7804 186.967 97.3471 186.3C96.9471 185.6 96.7471 184.8 96.7471 183.9C96.7471 182.933 96.8971 181.817 97.1971 180.55C97.5304 179.25 97.9304 177.917 98.3971 176.55C98.8971 175.15 99.3971 173.85 99.8971 172.65C100.064 172.25 100.214 171.817 100.347 171.35C100.514 170.883 100.597 170.467 100.597 170.1C100.597 169.433 100.297 169.1 99.6971 169.1C99.4637 169.1 99.1971 169.15 98.8971 169.25C98.5971 169.317 98.2471 169.467 97.8471 169.7C97.1471 170.033 96.4804 170.5 95.8471 171.1C95.2137 171.667 94.7637 172.1 94.4971 172.4C93.2304 174.033 92.2637 175.8 91.5971 177.7C90.9637 179.6 90.2971 181.533 89.5971 183.5C89.3971 184.067 89.1971 184.65 88.9971 185.25C88.7971 185.85 88.6137 186.433 88.4471 187H83.5471C84.1137 185.4 84.6804 183.817 85.2471 182.25C85.8471 180.65 86.4471 179.067 87.0471 177.5C87.4137 176.6 87.7471 175.733 88.0471 174.9C88.3471 174.033 88.6137 173.233 88.8471 172.5C88.9804 172.133 89.0971 171.75 89.1971 171.35C89.2971 170.95 89.3471 170.583 89.3471 170.25C89.3471 169.483 89.0137 169.1 88.3471 169.1C88.1137 169.1 87.8304 169.15 87.4971 169.25C87.1971 169.317 86.8304 169.467 86.3971 169.7C85.6971 170.033 85.0304 170.5 84.3971 171.1C83.7637 171.667 83.3304 172.1 83.0971 172.4C82.6637 172.933 82.2471 173.533 81.8471 174.2C81.4471 174.833 81.0971 175.483 80.7971 176.15C80.1304 177.583 79.5971 178.95 79.1971 180.25C78.8304 181.517 78.4804 182.6 78.1471 183.5C77.9471 184.067 77.7471 184.65 77.5471 185.25C77.3471 185.85 77.1637 186.433 76.9971 187H72.1471C72.1471 187 72.2637 186.583 72.4971 185.75C72.7304 184.917 73.0137 184.083 73.3471 183.25L76.5971 174.95C76.6971 174.683 76.8471 174.25 77.0471 173.65C77.2804 173.017 77.5137 172.333 77.7471 171.6C77.9804 170.833 78.1804 170.1 78.3471 169.4C78.5137 168.667 78.5971 168.067 78.5971 167.6C78.5971 167.3 78.5637 167.1 78.4971 167C78.7971 167 79.1304 167 79.4971 167C79.8971 166.967 80.2637 166.95 80.5971 166.95C81.0637 166.95 81.4971 166.967 81.8971 167C82.3304 167.033 82.6137 167.117 82.7471 167.25C83.1137 167.517 83.2971 167.917 83.2971 168.45C83.2971 168.883 83.2137 169.317 83.0471 169.75C82.8804 170.15 82.7637 170.483 82.6971 170.75C83.1637 170.317 83.6804 169.9 84.2471 169.5C84.8137 169.1 85.6304 168.583 86.6971 167.95C87.3637 167.583 88.1471 167.283 89.0471 167.05C89.9471 166.817 90.7637 166.7 91.4971 166.7C93.2637 166.7 94.1471 167.433 94.1471 168.9C94.1471 169.5 93.9637 170.3 93.5971 171.3C94.2971 170.6 95.0137 170 95.7471 169.5C96.5137 168.967 97.3137 168.45 98.1471 167.95C98.8137 167.583 99.5971 167.283 100.497 167.05C101.397 166.817 102.214 166.7 102.947 166.7C104.714 166.7 105.597 167.45 105.597 168.95C105.597 169.283 105.53 169.667 105.397 170.1C105.297 170.533 105.147 171.017 104.947 171.55C104.747 172.083 104.464 172.817 104.097 173.75C103.73 174.65 103.347 175.617 102.947 176.65C102.58 177.65 102.264 178.617 101.997 179.55C101.764 180.45 101.647 181.2 101.647 181.8C101.647 182.167 101.697 182.5 101.797 182.8C101.93 183.067 102.164 183.2 102.497 183.2C102.73 183.2 103.064 183.083 103.497 182.85C104.097 182.483 104.697 182 105.297 181.4C105.897 180.8 106.297 180.367 106.497 180.1C107.164 179.233 107.797 178.317 108.397 177.35C108.997 176.35 109.514 175.433 109.947 174.6C110.114 174.333 110.23 174.2 110.297 174.2C110.497 174.2 110.597 174.483 110.597 175.05C110.597 175.317 110.547 175.633 110.447 176C110.38 176.333 110.264 176.65 110.097 176.95C109.63 177.75 109.08 178.633 108.447 179.6C107.814 180.567 107.164 181.5 106.497 182.4C106.03 183.033 105.414 183.733 104.647 184.5C103.88 185.267 103.064 185.933 102.197 186.5C101.33 187.033 100.497 187.3 99.6971 187.3ZM121.889 188C120.223 188 118.673 187.85 117.239 187.55C115.806 187.25 114.606 186.75 113.639 186.05C112.973 185.55 112.456 184.917 112.089 184.15C111.756 183.383 111.589 182.6 111.589 181.8C111.589 180.8 111.873 179.867 112.439 179C113.006 178.133 113.906 177.55 115.139 177.25C115.306 177.217 115.456 177.2 115.589 177.2C115.756 177.167 115.906 177.15 116.039 177.15C116.706 177.15 117.289 177.3 117.789 177.6C118.323 177.9 118.689 178.25 118.889 178.65C118.756 178.75 118.573 178.933 118.339 179.2C118.106 179.433 117.956 179.633 117.889 179.8C117.389 180.633 117.139 181.467 117.139 182.3C117.139 183.433 117.573 184.367 118.439 185.1C119.339 185.8 120.506 186.15 121.939 186.15C123.239 186.15 124.456 185.833 125.589 185.2C126.756 184.533 127.689 183.65 128.389 182.55C129.123 181.45 129.489 180.183 129.489 178.75C129.489 177.683 129.239 176.55 128.739 175.35C128.306 174.317 127.706 173.4 126.939 172.6C126.206 171.8 125.506 171.05 124.839 170.35C123.939 169.383 123.073 168.45 122.239 167.55C121.439 166.617 120.773 165.617 120.239 164.55C119.739 163.45 119.489 162.217 119.489 160.85C119.489 159.55 119.756 158.283 120.289 157.05C120.856 155.817 121.656 154.767 122.689 153.9C123.856 152.9 125.189 152.2 126.689 151.8C128.189 151.4 129.756 151.2 131.389 151.2C133.423 151.2 135.023 151.467 136.189 152C137.389 152.5 138.239 153.15 138.739 153.95C139.273 154.75 139.539 155.6 139.539 156.5C139.539 157.367 139.339 158.2 138.939 159C138.573 159.8 138.056 160.483 137.389 161.05C136.723 161.583 135.989 161.917 135.189 162.05C135.056 162.083 134.923 162.1 134.789 162.1C134.656 162.1 134.506 162.1 134.339 162.1C133.606 162.1 132.956 161.933 132.389 161.6C131.856 161.267 131.589 160.7 131.589 159.9C131.589 159.8 131.589 159.683 131.589 159.55C131.623 159.417 131.656 159.283 131.689 159.15C132.289 159.15 132.906 158.933 133.539 158.5C134.173 158.067 134.589 157.583 134.789 157.05C134.956 156.617 135.039 156.217 135.039 155.85C135.039 154.95 134.623 154.25 133.789 153.75C132.989 153.217 132.039 152.95 130.939 152.95C129.639 152.95 128.473 153.233 127.439 153.8C126.439 154.333 125.656 155.05 125.089 155.95C124.523 156.817 124.239 157.767 124.239 158.8C124.239 159.833 124.556 160.833 125.189 161.8C125.723 162.567 126.389 163.367 127.189 164.2C127.989 165 128.806 165.783 129.639 166.55C130.473 167.283 131.189 167.967 131.789 168.6C133.156 169.933 134.139 171.3 134.739 172.7C135.339 174.067 135.639 175.417 135.639 176.75C135.639 178.283 135.273 179.733 134.539 181.1C133.839 182.433 132.856 183.617 131.589 184.65C130.323 185.683 128.856 186.5 127.189 187.1C125.523 187.7 123.756 188 121.889 188ZM129.061 199.4C129.228 199.167 129.444 198.75 129.711 198.15C129.978 197.583 130.261 196.967 130.561 196.3C130.861 195.633 131.111 195.067 131.311 194.6C131.878 193.2 132.528 191.483 133.261 189.45C133.994 187.45 134.744 185.35 135.511 183.15C136.278 180.95 137.011 178.85 137.711 176.85C138.411 174.85 139.028 173.2 139.561 171.9C140.061 170.7 140.494 169.75 140.861 169.05C141.228 168.317 141.744 167.8 142.411 167.5C143.111 167.167 144.161 167 145.561 167H147.061C146.594 167.333 145.978 168.1 145.211 169.3C144.478 170.467 143.778 171.7 143.111 173C143.344 172.7 143.561 172.417 143.761 172.15C143.961 171.85 144.178 171.583 144.411 171.35C145.478 170.05 146.611 168.967 147.811 168.1C149.011 167.233 150.178 166.8 151.311 166.8C152.244 166.8 153.028 167.15 153.661 167.85C154.328 168.55 154.661 169.733 154.661 171.4C154.661 172.933 154.361 174.483 153.761 176.05C153.194 177.583 152.428 179.05 151.461 180.45C150.494 181.817 149.428 183.033 148.261 184.1C148.028 184.333 147.761 184.567 147.461 184.8C147.194 185 146.911 185.2 146.611 185.4C147.678 185.5 148.728 185.25 149.761 184.65C150.828 184.05 151.794 183.317 152.661 182.45C153.561 181.583 154.294 180.8 154.861 180.1C155.528 179.233 156.194 178.233 156.861 177.1C157.561 175.967 158.128 174.967 158.561 174.1C158.694 173.867 158.811 173.75 158.911 173.75C159.178 173.75 159.311 174.05 159.311 174.65C159.311 175.183 159.144 175.733 158.811 176.3C158.544 176.8 158.178 177.433 157.711 178.2C157.244 178.967 156.828 179.633 156.461 180.2C154.928 182.433 153.144 184.267 151.111 185.7C149.078 187.133 146.628 187.85 143.761 187.85C143.528 187.85 143.278 187.85 143.011 187.85C142.778 187.85 142.528 187.833 142.261 187.8C141.461 187.733 140.711 187.533 140.011 187.2C139.311 186.9 138.844 186.317 138.611 185.45L135.811 194.2C135.444 195.367 135.111 196.333 134.811 197.1C134.478 197.867 134.078 198.433 133.611 198.8C133.111 199.2 132.394 199.4 131.461 199.4H129.061ZM141.111 185.7C141.678 185.7 142.328 185.417 143.061 184.85C143.794 184.25 144.511 183.517 145.211 182.65C145.944 181.75 146.561 180.883 147.061 180.05C147.828 178.717 148.478 177.35 149.011 175.95C149.544 174.55 149.811 173.4 149.811 172.5C149.811 171.5 149.411 171 148.611 171C147.911 171 147.144 171.333 146.311 172C145.711 172.467 145.028 173.15 144.261 174.05C143.528 174.95 142.794 175.967 142.061 177.1C141.361 178.2 140.778 179.333 140.311 180.5C139.878 181.633 139.661 182.667 139.661 183.6C139.661 183.767 139.661 183.933 139.661 184.1C139.694 184.233 139.728 184.383 139.761 184.55C139.928 185.317 140.378 185.7 141.111 185.7ZM162.239 187.4C160.706 187.4 159.372 186.917 158.239 185.95C157.139 184.983 156.589 183.433 156.589 181.3C156.589 179.733 156.872 178.1 157.439 176.4C158.006 174.7 158.806 173.117 159.839 171.65C160.906 170.183 162.189 168.983 163.689 168.05C165.189 167.117 166.872 166.65 168.739 166.65C170.272 166.65 171.456 166.95 172.289 167.55C173.156 168.117 173.772 168.883 174.139 169.85C174.506 170.817 174.689 171.85 174.689 172.95C174.689 173.783 174.589 174.633 174.389 175.5C174.222 176.333 173.972 177.167 173.639 178C174.206 178.667 174.922 179 175.789 179C176.722 179 177.589 178.65 178.389 177.95C178.856 177.55 179.272 177.05 179.639 176.45C180.039 175.817 180.389 175.233 180.689 174.7C180.789 174.5 180.906 174.4 181.039 174.4C181.206 174.4 181.289 174.633 181.289 175.1C181.289 175.4 181.239 175.75 181.139 176.15C181.072 176.55 180.906 176.95 180.639 177.35C180.139 178.217 179.622 178.883 179.089 179.35C178.556 179.783 177.956 180.133 177.289 180.4C176.789 180.6 176.256 180.7 175.689 180.7C174.656 180.7 173.722 180.383 172.889 179.75C172.622 180.317 172.289 180.9 171.889 181.5C170.922 183.133 169.672 184.533 168.139 185.7C166.606 186.833 164.639 187.4 162.239 187.4ZM164.139 185.5C164.906 185.5 165.639 185.25 166.339 184.75C167.072 184.217 167.739 183.567 168.339 182.8C168.939 182.033 169.456 181.233 169.889 180.4C170.356 179.567 170.739 178.833 171.039 178.2C169.906 177.233 169.339 176.017 169.339 174.55C169.339 173.583 169.606 172.833 170.139 172.3C170.672 171.767 171.406 171.533 172.339 171.6C172.306 170.833 172.106 170.2 171.739 169.7C171.372 169.2 170.772 168.95 169.939 168.95C169.172 168.95 168.439 169.183 167.739 169.65C167.072 170.117 166.439 170.717 165.839 171.45C165.272 172.15 164.756 172.883 164.289 173.65C163.856 174.383 163.489 175.05 163.189 175.65C162.756 176.517 162.356 177.567 161.989 178.8C161.622 180.033 161.439 181.183 161.439 182.25C161.439 183.183 161.622 183.967 161.989 184.6C162.389 185.2 163.106 185.5 164.139 185.5ZM183.05 187.3C182.083 187.3 181.35 186.917 180.85 186.15C180.616 185.783 180.45 185.35 180.35 184.85C180.25 184.35 180.2 183.833 180.2 183.3C180.2 182.767 180.233 182.233 180.3 181.7C180.366 181.133 180.45 180.583 180.55 180.05C180.716 179.183 180.9 178.4 181.1 177.7C181.333 176.967 181.566 176.267 181.8 175.6V175.55C181.533 176.05 181.2 176.6 180.8 177.2C180.4 177.767 180.116 178.183 179.95 178.45C179.716 178.817 179.533 179 179.4 179C179.266 179 179.2 178.85 179.2 178.55C179.2 177.883 179.4 177.15 179.8 176.35C180.066 175.817 180.433 175.133 180.9 174.3C181.366 173.433 181.85 172.5 182.35 171.5C182.85 170.5 183.283 169.533 183.65 168.6H180.3C180.133 168.6 180.1 168.467 180.2 168.2C180.3 167.933 180.45 167.683 180.65 167.45C180.85 167.183 181 167.05 181.1 167.05H184.9C185.266 166.183 185.683 165.25 186.15 164.25C186.65 163.25 187.2 162.317 187.8 161.45C188.433 160.55 189.116 159.817 189.85 159.25C190.583 158.683 191.366 158.4 192.2 158.4C192.566 158.4 193.016 158.4 193.55 158.4C194.116 158.4 194.466 158.383 194.6 158.35C193.9 158.817 193.083 159.75 192.15 161.15C191.216 162.517 190.2 164.483 189.1 167.05H194.15C194.25 167.05 194.216 167.183 194.05 167.45C193.883 167.683 193.666 167.933 193.4 168.2C193.166 168.467 192.933 168.6 192.7 168.6H188.4C187.966 169.7 187.483 170.9 186.95 172.2C186.45 173.5 185.983 174.783 185.55 176.05C185.15 177.283 184.85 178.417 184.65 179.45C184.516 180.083 184.45 180.667 184.45 181.2C184.45 182.467 184.85 183.1 185.65 183.1C186.183 183.1 186.816 182.833 187.55 182.3C188.283 181.767 189.016 181.033 189.75 180.1C190.416 179.233 191.05 178.3 191.65 177.3C192.283 176.3 192.816 175.383 193.25 174.55C193.383 174.317 193.5 174.2 193.6 174.2C193.8 174.2 193.9 174.467 193.9 175C193.9 175.267 193.85 175.583 193.75 175.95C193.683 176.283 193.55 176.617 193.35 176.95C192.883 177.75 192.333 178.633 191.7 179.6C191.066 180.533 190.416 181.467 189.75 182.4C189.283 183 188.666 183.683 187.9 184.45C187.166 185.217 186.366 185.883 185.5 186.45C184.666 187.017 183.85 187.3 183.05 187.3Z" fill="white"/>
<path d="M84.3193 1.52093C66.2885 5.28613 52.8556 14.2509 42.9387 28.8634C35.0953 40.4279 32.3907 50.4685 33.112 65.7982C33.5627 77.7213 36.087 86.5067 41.2258 94.6647L44.2009 99.2367L44.1107 94.0371C44.1107 89.4651 44.7418 87.5825 48.8889 79.3349C53.5769 70.0116 53.5769 69.922 53.5769 61.4054C53.5769 55.4887 54.1178 51.096 55.2898 47.3308C60.0679 32.1804 73.5008 20.7951 89.5482 18.285C106.497 15.6852 124.348 25.0086 132.552 40.5176C136.879 48.6755 137.69 54.0544 136.969 71.2667C136.248 87.3136 137.24 94.575 140.936 101.657L142.649 104.974L147.156 98.0713C161.852 75.749 161.581 48.9444 146.525 27.2498C139.223 16.5817 124.348 6.27225 111.636 2.86564C105.235 1.07269 89.8187 0.355515 84.3193 1.52093Z" fill="white"/>
<path d="M87.1142 24.4709C81.0739 27.4292 74.8533 34.4217 69.8948 43.8347C67.7312 47.9585 64.7561 52.9788 63.4038 55.0407C61.9613 57.1922 61.1499 58.8955 61.6007 58.8955C62.953 58.8955 73.9518 48.3171 79.2708 41.8625C87.2044 32.1806 95.5887 27.3396 106.678 25.9052L111.726 25.188L107.309 23.664C100.547 21.3332 92.7939 21.6918 87.1142 24.4709Z" fill="white"/>
<path d="M73.7711 28.3248C68.993 31.7314 65.477 35.3174 62.7724 39.6204C60.2481 43.4753 57.1828 52.44 57.1828 55.5777C57.273 57.5499 57.273 57.5499 58.6253 55.757C59.4367 54.7709 62.1413 50.1092 64.6656 45.4475C67.1899 40.7858 71.1567 34.4209 73.5908 31.3729C75.9348 28.2352 77.7379 25.7251 77.5576 25.7251C77.3773 25.7251 75.6643 26.8905 73.7711 28.3248Z" fill="white"/>
<path d="M99.4653 31.4629C91.081 34.8695 88.1059 37.1107 79.9921 46.5237C75.7548 51.4543 69.8047 57.2814 66.8296 59.433C62.3219 62.7499 61.8711 63.3774 63.6742 63.3774C66.1985 63.3774 74.4025 60.688 78.7299 58.5365C80.2625 57.7296 85.1308 53.6059 89.5483 49.4821C101.088 38.6347 112.087 33.7938 121.192 35.6764C124.889 36.4832 125.52 36.1246 123.897 34.242C119.57 29.0425 108.3 27.7874 99.4653 31.4629Z" fill="white"/>
<path d="M109.743 40.4279C104.153 42.2209 99.916 45.0896 91.712 52.7096C83.508 60.4193 76.1154 64.5431 67.1 66.4257L61.2401 67.5911L64.8462 68.6669C70.4357 70.1909 78.189 69.8323 83.6883 67.8601C86.3929 66.7843 94.5068 61.764 101.719 56.6541C115.603 46.8826 121.823 44.0138 127.233 44.8207C130.027 45.2689 130.208 45.1793 129.126 43.9242C125.7 39.8004 117.045 38.1867 109.743 40.4279Z" fill="white"/>
<path d="M131.109 55.4881C131.109 57.7292 130.298 62.2116 129.306 65.3493C127.142 72.1625 127.052 76.6449 128.855 81.0376C129.577 82.7409 130.208 85.3407 130.208 86.775C130.208 88.8369 129.847 89.3748 128.224 89.3748C124.889 89.3748 123.626 90.6299 124.348 93.0504C126.692 100.67 136.158 111.518 143.821 115.373C145.714 116.359 147.427 117.166 147.607 117.166C147.878 117.166 146.435 115.462 144.542 113.4C135.256 103.27 132.642 93.4986 133.093 69.9213C133.273 57.7292 133.093 53.3365 132.281 52.5297C131.289 51.6332 131.109 52.1711 131.109 55.4881Z" fill="white"/>
<path d="M93.9657 67.6816C87.3845 74.4052 84.5897 83.3699 85.4011 94.4862C86.6632 111.34 95.7687 119.856 122.094 129.001C129.306 131.421 135.887 133.841 136.789 134.29C139.223 135.634 138.682 133.214 135.707 129.09C132.461 124.697 127.142 121.38 114.881 116.271C103.342 111.43 96.5801 105.423 93.7854 97.6239C91.5315 91.0796 92.0724 80.5909 95.318 71.5365C96.6703 67.8609 97.5718 64.7233 97.4817 64.544C97.3014 64.4543 95.7688 65.799 93.9657 67.6816Z" fill="white"/>
<path d="M52.9461 79.4243C47.4468 90.6302 46.9058 93.1403 48.7089 99.1467C50.1514 104.167 51.684 105.87 51.0529 102.015C50.0612 95.2919 54.7492 82.9205 60.8797 76.4659C62.9532 74.1351 64.3957 72.3421 64.1252 72.3421C63.9449 72.3421 62.3221 71.8042 60.6994 71.1767L57.6341 69.9216L52.9461 79.4243Z" fill="white"/>
<path d="M81.6149 75.1215C76.9269 81.4865 74.7632 89.4651 74.7632 100.133V109.546L78.2792 114.746C83.5081 122.455 90.9007 128.103 111.095 139.399C118.037 143.254 118.668 142.985 116.324 137.516C114.611 133.572 109.382 129 101.539 124.428C94.3265 120.304 89.909 116.27 86.4832 110.801C81.2543 102.643 79.9921 88.1204 83.6884 77.4524C84.7702 74.1354 85.4013 71.446 84.9506 71.446C84.5899 71.446 83.0573 73.0596 81.6149 75.1215Z" fill="white"/>
<path d="M67.7309 74.9421C63.9444 77.3625 58.445 85.0722 56.7321 90.3614C53.757 99.1469 55.2896 109.905 60.3383 115.821L61.8709 117.614L61.2398 115.821C59.7973 111.698 59.2564 103.809 59.9776 98.7883C61.1496 90.5407 63.7641 83.9964 69.2635 75.6592C71.2469 72.7905 71.0666 72.7009 67.7309 74.9421Z" fill="white"/>
<path d="M73.2303 76.8244C61.961 89.8233 60.2481 109.904 69.1733 123.082C71.878 127.117 83.5979 137.785 85.3109 137.785C85.6715 137.785 86.0321 136.978 86.0321 135.992C86.0321 132.585 82.9669 126.579 78.4592 121.2C70.8863 112.145 68.9029 105.243 70.706 94.3056C71.2469 90.8094 73.05 84.7134 74.6727 80.5896C76.2955 76.5554 77.3773 73.2385 76.9266 73.2385C76.566 73.2385 74.853 74.8521 73.2303 76.8244Z" fill="white"/>
<path d="M119.389 98.0714C119.118 103.54 119.479 105.243 121.823 108.56C124.528 112.415 131.199 116.539 136.338 117.435C140.124 118.152 140.034 117.256 135.977 114.567C131.65 111.608 125.88 104.974 123.626 100.313C121.643 96.4577 119.569 95.2923 119.389 98.0714Z" fill="white"/>
<path d="M103.161 104.973C103.161 105.153 103.883 105.87 104.784 106.497C106.136 107.663 106.227 107.573 105.055 106.139C103.883 104.704 103.161 104.256 103.161 104.973Z" fill="white"/>
<path d="M115.062 107.395C114.16 108.829 113.169 109.188 111.185 108.919C109.743 108.65 108.571 108.65 108.571 108.829C108.571 109.278 112.898 110.891 116.775 111.698L120.291 112.505L118.578 110.084C117.676 108.829 116.775 107.216 116.594 106.588C116.324 105.871 115.783 106.14 115.062 107.395Z" fill="white"/>
</svg>
