<svg width="50" height="50" viewBox="0 0 50 50" fill="none" xmlns="http://www.w3.org/2000/svg">
<rect width="50" height="50" rx="5" fill="#EA4C89"/>
<path fill-rule="evenodd" clip-rule="evenodd" d="M12.5 23.75C12.5 16.8465 18.0965 11.25 25 11.25C31.9035 11.25 37.5 16.8465 37.5 23.75V37.5C37.5 38.1904 36.9404 38.75 36.25 38.75C35.5596 38.75 35 38.1904 35 37.5V23.75C35 18.2272 30.5228 13.75 25 13.75C19.4772 13.75 15 18.2272 15 23.75V37.5C15 38.1904 14.4404 38.75 13.75 38.75C13.0596 38.75 12.5 38.1904 12.5 37.5V23.75Z" fill="white"/>
<path fill-rule="evenodd" clip-rule="evenodd" d="M17.5 24.375C17.5 23.6846 18.0596 23.125 18.75 23.125H31.25C31.9404 23.125 32.5 23.6846 32.5 24.375C32.5 27.9788 31.7723 31.3032 30.5375 33.7729C29.34 36.1679 27.4545 38.125 25 38.125C22.5455 38.125 20.66 36.1679 19.4625 33.7729C18.2277 31.3032 17.5 27.9788 17.5 24.375ZM20.0325 25.625C20.178 28.4109 20.8031 30.864 21.6986 32.6549C22.7631 34.784 24.0026 35.625 25 35.625C25.9974 35.625 27.2369 34.784 28.3014 32.6549C29.1969 30.864 29.822 28.4109 29.9675 25.625H20.0325Z" fill="white"/>
</svg>
