<svg width="50" height="50" viewBox="0 0 50 50" fill="none" xmlns="http://www.w3.org/2000/svg">
<rect width="50" height="50" rx="5" fill="#EA4C89"/>
<path fill-rule="evenodd" clip-rule="evenodd" d="M32.5 14.125C30.636 14.125 29.125 15.636 29.125 17.5C29.125 19.364 30.636 20.875 32.5 20.875C34.364 20.875 35.875 19.364 35.875 17.5C35.875 15.636 34.364 14.125 32.5 14.125ZM26.875 17.5C26.875 14.3934 29.3934 11.875 32.5 11.875C35.6066 11.875 38.125 14.3934 38.125 17.5C38.125 20.6066 35.6066 23.125 32.5 23.125C29.3934 23.125 26.875 20.6066 26.875 17.5Z" fill="white"/>
<path fill-rule="evenodd" clip-rule="evenodd" d="M17.5 29.125C15.636 29.125 14.125 30.636 14.125 32.5C14.125 34.364 15.636 35.875 17.5 35.875C19.364 35.875 20.875 34.364 20.875 32.5C20.875 30.636 19.364 29.125 17.5 29.125ZM11.875 32.5C11.875 29.3934 14.3934 26.875 17.5 26.875C20.6066 26.875 23.125 29.3934 23.125 32.5C23.125 35.6066 20.6066 38.125 17.5 38.125C14.3934 38.125 11.875 35.6066 11.875 32.5Z" fill="white"/>
<path fill-rule="evenodd" clip-rule="evenodd" d="M11.875 13C11.875 12.3787 12.3787 11.875 13 11.875H22C22.6213 11.875 23.125 12.3787 23.125 13V20.5C23.125 21.1962 22.8484 21.8639 22.3562 22.3562C21.8639 22.8484 21.1962 23.125 20.5 23.125H14.5C13.8038 23.125 13.1361 22.8484 12.6438 22.3562C12.1516 21.8639 11.875 21.1962 11.875 20.5V13ZM14.125 14.125V20.5C14.125 20.5995 14.1645 20.6948 14.2348 20.7652C14.3052 20.8355 14.4005 20.875 14.5 20.875H20.5C20.5995 20.875 20.6948 20.8355 20.7652 20.7652C20.8355 20.6948 20.875 20.5995 20.875 20.5V14.125H14.125ZM26.875 28C26.875 27.3787 27.3787 26.875 28 26.875H37C37.6213 26.875 38.125 27.3787 38.125 28V35.5C38.125 36.1962 37.8484 36.8639 37.3562 37.3562C36.8639 37.8484 36.1962 38.125 35.5 38.125H29.5C28.8038 38.125 28.1361 37.8484 27.6438 37.3562C27.1516 36.8639 26.875 36.1962 26.875 35.5V28ZM29.125 29.125V35.5C29.125 35.5995 29.1645 35.6948 29.2348 35.7652C29.3052 35.8355 29.4005 35.875 29.5 35.875H35.5C35.5995 35.875 35.6948 35.8355 35.7652 35.7652C35.8355 35.6948 35.875 35.5995 35.875 35.5V29.125H29.125Z" fill="white"/>
</svg>
