<svg width="50" height="50" viewBox="0 0 50 50" fill="none" xmlns="http://www.w3.org/2000/svg">
<rect width="50" height="50" rx="5" fill="#EA4C89"/>
<path d="M31.651 12.5317H26.9243C26.0702 12.5344 26.1022 13.8074 26.9243 13.7999H31.651V14.4507H26.9243C26.075 14.4432 26.1063 15.7155 26.9243 15.7189H31.651V16.3839H26.9243C26.075 16.3839 26.1063 17.6555 26.9243 17.6521H31.651V18.2859H26.9243C26.0927 18.292 26.1063 19.5649 26.9243 19.569H31.651V20.2041H26.9243C26.0927 20.2014 26.0893 21.4723 26.9243 21.4723H31.651V22.1061H26.9243C26.0927 22.1088 26.0893 23.3811 26.9243 23.375H31.651V24.0244H26.9243C26.0927 24.0169 26.0893 25.2878 26.9243 25.2926H31.651V25.925H26.9243C26.0927 25.9243 26.1063 27.1979 26.9243 27.1939H31.651V39.542C31.6537 41.4235 34.5117 41.3895 34.5199 39.542V10.6454C34.5117 9.78586 33.8059 8.69922 32.6445 8.69582H26.9243C26.0702 8.6965 26.1022 9.96946 26.9243 9.96402L31.651 9.97966V10.6121H26.9243C26.0716 10.608 26.1035 11.8803 26.9243 11.8809H31.651V12.5317ZM26.5993 34.4236C26.5965 32.2272 24.3199 29.8649 21.5999 31.3949V22.9942L19.8407 9.13918C19.804 8.77266 19.4933 8.6863 19.2845 8.68018C19.0689 8.6863 18.6371 8.77266 18.5902 9.13918L16.8399 22.9942V31.3949C14.1199 29.8649 11.9167 32.2422 11.916 34.4066C11.9167 36.3324 13.3991 37.9141 15.4051 37.9093C17.4261 37.9141 18.8799 36.1413 18.8799 34.4066V25.6802H19.5599V34.4066C19.5599 36.3487 21.0641 37.7862 22.7355 37.8773C22.7076 38.9422 23.0551 40.4613 23.7093 41.0638C24.4763 41.771 25.3895 40.8666 25.0149 40.1302C24.6531 39.4447 24.2981 39.0388 24.5865 37.5421C25.7914 36.9845 26.5965 35.8108 26.5993 34.4236ZM15.4826 36.1515C15.0241 36.1515 14.5843 35.9693 14.2601 35.6451C13.9359 35.3209 13.7537 34.8811 13.7537 34.4226C13.7537 33.9641 13.9359 33.5243 14.2601 33.2001C14.5843 32.8758 15.0241 32.6937 15.4826 32.6937C16.4251 32.6991 17.1928 33.4723 17.1996 34.4236C17.1977 34.8794 17.0165 35.3161 16.6952 35.6394C16.374 35.9627 15.9384 36.1467 15.4826 36.1515ZM21.3109 34.4236C21.3125 33.9674 21.4936 33.5302 21.815 33.2064C22.1364 32.8827 22.5724 32.6985 23.0286 32.6937C23.4849 32.6978 23.9212 32.8818 24.2427 33.2057C24.5642 33.5296 24.7449 33.9673 24.7456 34.4236C24.7449 34.8798 24.5641 35.3172 24.2426 35.6408C23.921 35.9644 23.4847 36.1479 23.0286 36.1515C22.5725 36.1474 22.1365 35.9637 21.8149 35.6403C21.4934 35.3168 21.3123 34.8797 21.3109 34.4236Z" fill="white"/>
</svg>
