<svg width="50" height="50" viewBox="0 0 50 50" fill="none" xmlns="http://www.w3.org/2000/svg">
<rect width="50" height="50" rx="5" fill="#EA4C89"/>
<path d="M13.5313 24.5C13.5313 21.5909 14.6869 18.801 16.7439 16.7439C18.801 14.6869 21.5909 13.5313 24.5 13.5313C27.4091 13.5313 30.199 14.6869 32.2561 16.7439C34.3131 18.801 35.4688 21.5909 35.4688 24.5C35.4688 24.8357 35.6021 25.1576 35.8394 25.3949C36.0768 25.6323 36.3987 25.7656 36.7344 25.7656C37.07 25.7656 37.392 25.6323 37.6293 25.3949C37.8667 25.1576 38 24.8357 38 24.5C38 21.83 37.2082 19.2199 35.7248 16.9998C34.2414 14.7797 32.133 13.0494 29.6662 12.0276C27.1994 11.0058 24.485 10.7385 21.8663 11.2594C19.2475 11.7803 16.8421 13.0661 14.9541 14.9541C13.0661 16.8421 11.7803 19.2475 11.2594 21.8663C10.7385 24.485 11.0058 27.1994 12.0276 29.6662C13.0494 32.133 14.7797 34.2414 16.9998 35.7248C19.2199 37.2082 21.83 38 24.5 38C24.8357 38 25.1576 37.8667 25.3949 37.6293C25.6323 37.392 25.7656 37.07 25.7656 36.7344C25.7656 36.3987 25.6323 36.0768 25.3949 35.8394C25.1576 35.6021 24.8357 35.4688 24.5 35.4688C21.5909 35.4688 18.801 34.3131 16.7439 32.2561C14.6869 30.199 13.5313 27.4091 13.5313 24.5Z" fill="white"/>
<path fill-rule="evenodd" clip-rule="evenodd" d="M32.4704 36.4954L37.3574 31.6084C37.3967 31.5692 37.4278 31.5226 37.4491 31.4714C37.4704 31.4201 37.4813 31.3652 37.4813 31.3097C37.4813 31.2542 37.4704 31.1992 37.4491 31.148C37.4278 31.0967 37.3967 31.0502 37.3574 31.011L32.4704 26.124C32.4114 26.0648 32.3361 26.0245 32.2542 26.0082C32.1723 25.9919 32.0873 26.0002 32.0101 26.0322C31.933 26.0642 31.867 26.1184 31.8207 26.1879C31.7743 26.2574 31.7497 26.3391 31.7498 26.4227V30.0441H26.2654C25.9298 30.0441 25.6079 30.1774 25.3705 30.4148C25.1332 30.6521 24.9998 30.974 24.9998 31.3097C24.9998 31.6454 25.1332 31.9673 25.3705 32.2046C25.6079 32.442 25.9298 32.5753 26.2654 32.5753H31.7498V36.1967C31.7497 36.2802 31.7743 36.3619 31.8207 36.4315C31.867 36.501 31.933 36.5552 32.0101 36.5872C32.0873 36.6192 32.1723 36.6275 32.2542 36.6112C32.3361 36.5948 32.4114 36.5545 32.4704 36.4954Z" fill="white"/>
<path fill-rule="evenodd" clip-rule="evenodd" d="M30.9022 21.6584C30.8376 21.8039 30.7429 21.9362 30.6236 22.0475L24.6228 27.6483C24.5035 27.7598 24.3619 27.8483 24.206 27.9086C24.05 27.9689 23.8829 28 23.7141 28C23.5453 28 23.3782 27.9689 23.2223 27.9086C23.0663 27.8483 22.9247 27.7598 22.8054 27.6483L19.3764 24.4479C19.2571 24.3365 19.1624 24.2043 19.0978 24.0588C19.0332 23.9132 19 23.7573 19 23.5998C19 23.4423 19.0332 23.2863 19.0978 23.1408C19.1624 22.9952 19.2571 22.863 19.3764 22.7516C19.4957 22.6403 19.6374 22.5519 19.7933 22.4916C19.9492 22.4314 20.1163 22.4003 20.2851 22.4003C20.4538 22.4003 20.621 22.4314 20.7769 22.4916C20.9328 22.5519 21.0744 22.6403 21.1938 22.7516L23.7141 25.1024L28.8062 20.3513C28.9256 20.2399 29.0672 20.1516 29.2231 20.0913C29.379 20.031 29.5462 20 29.7149 20C29.8837 20 30.0508 20.031 30.2067 20.0913C30.3626 20.1516 30.5043 20.2399 30.6236 20.3513C30.7429 20.4627 30.8376 20.5949 30.9022 20.7404C30.9668 20.8859 31 21.0419 31 21.1994C31 21.3569 30.9668 21.5129 30.9022 21.6584Z" fill="white"/>
</svg>
