<svg width="50" height="50" viewBox="0 0 50 50" fill="none" xmlns="http://www.w3.org/2000/svg">
<rect width="50" height="50" rx="5" fill="#EA4C89"/>
<path d="M20.5 31.25L25 26.75L29.5 31.25L31.25 29.5L26.75 25L31.25 20.5L29.5 18.75L25 23.25L20.5 18.75L18.75 20.5L23.25 25L18.75 29.5L20.5 31.25ZM25 37.5C23.2708 37.5 21.6458 37.1717 20.125 36.515C18.6042 35.8583 17.2813 34.9679 16.1563 33.8438C15.0313 32.7196 14.1408 31.3967 13.485 29.875C12.8292 28.3533 12.5008 26.7283 12.5 25C12.4992 23.2717 12.8275 21.6467 13.485 20.125C14.1425 18.6033 15.0329 17.2804 16.1563 16.1563C17.2796 15.0321 18.6025 14.1417 20.125 13.485C21.6475 12.8283 23.2725 12.5 25 12.5C26.7275 12.5 28.3525 12.8283 29.875 13.485C31.3975 14.1417 32.7204 15.0321 33.8438 16.1563C34.9671 17.2804 35.8579 18.6033 36.5163 20.125C37.1746 21.6467 37.5025 23.2717 37.5 25C37.4975 26.7283 37.1692 28.3533 36.515 29.875C35.8608 31.3967 34.9704 32.7196 33.8438 33.8438C32.7171 34.9679 31.3942 35.8588 29.875 36.5163C28.3558 37.1738 26.7308 37.5017 25 37.5ZM25 35C27.7917 35 30.1563 34.0313 32.0938 32.0938C34.0313 30.1563 35 27.7917 35 25C35 22.2083 34.0313 19.8438 32.0938 17.9063C30.1563 15.9688 27.7917 15 25 15C22.2083 15 19.8438 15.9688 17.9063 17.9063C15.9688 19.8438 15 22.2083 15 25C15 27.7917 15.9688 30.1563 17.9063 32.0938C19.8438 34.0313 22.2083 35 25 35Z" fill="white"/>
</svg>
