<svg width="50" height="50" viewBox="0 0 50 50" fill="none" xmlns="http://www.w3.org/2000/svg">
<rect width="50" height="50" rx="5" fill="#EA4C89"/>
<path fill-rule="evenodd" clip-rule="evenodd" d="M28.6708 16.9722C24.8878 15.459 20.2968 16.3219 17.6292 19.2601L17.629 19.2603C16.3156 20.7062 15.4919 22.5295 15.2751 24.4707C15.0583 26.4119 15.4595 28.3721 16.4215 30.072C17.3835 31.772 18.8574 33.1251 20.6331 33.9387C22.4089 34.7523 24.3961 34.9849 26.3118 34.6034L26.3121 34.6033C30.1665 33.8368 33.0392 30.3518 33.8061 26.5177C33.9431 25.8322 34.6099 25.3877 35.2953 25.5248C35.9807 25.6619 36.4252 26.3287 36.2881 27.0141C35.3675 31.6174 31.8785 36.077 26.8062 37.0859C24.3681 37.5714 21.8389 37.2754 19.5788 36.2399C17.3187 35.2044 15.443 33.4823 14.2186 31.3187C12.9942 29.1551 12.4836 26.6604 12.7595 24.1898C13.0354 21.7192 14.0837 19.3987 15.7551 17.5586M15.7553 17.5584C19.21 13.7535 24.9565 12.7602 29.6109 14.622C30.2599 14.8816 30.5756 15.6182 30.316 16.2672C30.0564 16.9161 29.3198 17.2318 28.6708 16.9722" fill="white"/>
<path fill-rule="evenodd" clip-rule="evenodd" d="M35.9053 17.3981C36.4189 17.8723 36.451 18.673 35.9769 19.1866L25.8519 30.1553C25.6182 30.4084 25.2915 30.5554 24.9472 30.5623C24.6028 30.5691 24.2705 30.4354 24.0269 30.1918L19.8082 25.9731C19.3139 25.4788 19.3139 24.6775 19.8082 24.1832C20.3025 23.6889 21.1038 23.6889 21.5981 24.1832L24.8854 27.4705L34.1169 17.4697C34.591 16.9561 35.3917 16.924 35.9053 17.3981Z" fill="white"/>
</svg>
