<svg width="50" height="50" viewBox="0 0 50 50" fill="none" xmlns="http://www.w3.org/2000/svg">
<rect width="50" height="50" rx="5" fill="#EA4C89"/>
<path d="M25 12.5C18.1 12.5 12.5 18.1 12.5 25C12.5 31.9 18.1 37.5 25 37.5C31.9 37.5 37.5 31.9 37.5 25C37.5 18.1 31.9 12.5 25 12.5ZM25 35C19.475 35 15 30.525 15 25C15 19.475 19.475 15 25 15C30.525 15 35 19.475 35 25C35 30.525 30.525 35 25 35Z" fill="white"/>
<path d="M18.75 26.875C19.7855 26.875 20.625 26.0355 20.625 25C20.625 23.9645 19.7855 23.125 18.75 23.125C17.7145 23.125 16.875 23.9645 16.875 25C16.875 26.0355 17.7145 26.875 18.75 26.875Z" fill="white"/>
<path d="M25 26.875C26.0355 26.875 26.875 26.0355 26.875 25C26.875 23.9645 26.0355 23.125 25 23.125C23.9645 23.125 23.125 23.9645 23.125 25C23.125 26.0355 23.9645 26.875 25 26.875Z" fill="white"/>
<path d="M31.25 26.875C32.2855 26.875 33.125 26.0355 33.125 25C33.125 23.9645 32.2855 23.125 31.25 23.125C30.2145 23.125 29.375 23.9645 29.375 25C29.375 26.0355 30.2145 26.875 31.25 26.875Z" fill="white"/>
</svg>
