<svg width="50" height="50" viewBox="0 0 50 50" fill="none" xmlns="http://www.w3.org/2000/svg">
<rect width="50" height="50" rx="5" fill="#EA4C89"/>
<g clip-path="url(#clip0_1704_542)">
<path d="M32.329 23.5625C32.8594 23.724 33.3644 23.9431 33.8439 24.2199C34.3235 24.4967 34.8256 24.9176 35.3503 25.4827C35.875 26.0478 36.3236 26.7138 36.6959 27.4807C37.0683 28.2477 37.3786 29.2395 37.6269 30.4562C37.8751 31.6729 37.9992 33.0366 37.9992 34.5474C37.9992 36.3235 37.435 37.8429 36.3066 39.1057C35.1783 40.3686 33.8185 41 32.2275 41H17.7727C16.1817 41 14.822 40.3686 13.6936 39.1057C12.5652 37.8429 12.001 36.3235 12.001 34.5474C12.001 33.0366 12.1251 31.6729 12.3733 30.4562C12.6216 29.2395 12.9319 28.2477 13.3043 27.4807C13.6766 26.7138 14.1252 26.0478 14.6499 25.4827C15.1746 24.9176 15.6767 24.4967 16.1563 24.2199C16.6359 23.9431 17.1408 23.724 17.6712 23.5625C16.7797 22.1209 16.334 20.5525 16.334 18.8571C16.334 17.6577 16.5625 16.5131 17.0195 15.4233C17.4765 14.3334 18.0943 13.3906 18.8729 12.5949C19.6515 11.7991 20.574 11.1677 21.6403 10.7006C22.7066 10.2335 23.8266 10 25.0001 10C26.1736 10 27.2936 10.2335 28.3599 10.7006C29.4262 11.1677 30.3487 11.7991 31.1273 12.5949C31.9059 13.3906 32.5237 14.3334 32.9807 15.4233C33.4377 16.5131 33.6662 17.6577 33.6662 18.8571C33.6662 20.5525 33.2205 22.1209 32.329 23.5625ZM25.0001 12.2143C23.206 12.2143 21.6742 12.863 20.4047 14.1604C19.1353 15.4579 18.5005 17.0234 18.5005 18.8571C18.5005 20.6908 19.1353 22.2564 20.4047 23.5538C21.6742 24.8513 23.206 25.5 25.0001 25.5C26.7943 25.5 28.3261 24.8513 29.5955 23.5538C30.865 22.2564 31.4997 20.6908 31.4997 18.8571C31.4997 17.0234 30.865 15.4579 29.5955 14.1604C28.3261 12.863 26.7943 12.2143 25.0001 12.2143ZM32.2275 38.7857C33.2205 38.7857 34.0696 38.3734 34.7748 37.5488C35.4801 36.7242 35.8327 35.7238 35.8327 34.5474C35.8327 31.7911 35.3898 29.6172 34.504 28.0257C33.6182 26.4342 32.346 25.598 30.6872 25.5173C29.0511 26.982 27.1553 27.7143 25.0001 27.7143C22.8449 27.7143 20.9492 26.982 19.313 25.5173C17.6542 25.598 16.382 26.4342 15.4962 28.0257C14.6104 29.6172 14.1675 31.7911 14.1675 34.5474C14.1675 35.7238 14.5201 36.7242 15.2254 37.5488C15.9306 38.3734 16.7797 38.7857 17.7727 38.7857H32.2275Z" fill="white"/>
</g>
<defs>
<clipPath id="clip0_1704_542">
<rect width="26" height="31" fill="white" transform="translate(12 10)"/>
</clipPath>
</defs>
</svg>
