<svg width="132" height="126" viewBox="0 0 132 126" fill="none" xmlns="http://www.w3.org/2000/svg">
<path d="M15.6954 119.216C14.714 119.216 13.6794 119.099 12.5914 118.864C11.5247 118.651 10.6287 118.309 9.90338 117.84C8.90071 117.157 8.16471 116.283 7.69538 115.216C7.22604 114.149 6.99138 112.987 6.99138 111.728C6.99138 110.469 7.19404 109.157 7.59938 107.792C8.02604 106.427 8.63404 105.093 9.42338 103.792C10.2127 102.469 11.1407 101.253 12.2074 100.144C13.2954 99.0133 14.5114 98.0533 15.8554 97.264C17.1994 96.4747 18.6287 95.9307 20.1434 95.632C21.1034 95.44 22.0207 95.344 22.8954 95.344C24.602 95.344 25.9674 95.6853 26.9914 96.368C28.0154 97.0293 28.5274 97.8827 28.5274 98.928C28.5274 99.1413 28.506 99.3547 28.4634 99.568C28.442 99.76 28.378 99.9733 28.2714 100.208C28.0367 100.827 27.642 101.381 27.0874 101.872C26.554 102.341 25.9354 102.704 25.2314 102.96C24.5487 103.216 23.8447 103.323 23.1194 103.28C22.778 103.237 22.4794 103.12 22.2234 102.928C21.9887 102.715 21.8714 102.459 21.8714 102.16C21.8714 101.861 21.9994 101.541 22.2554 101.2C22.49 101.285 22.7567 101.328 23.0554 101.328C23.5887 101.328 24.1114 101.2 24.6234 100.944C25.1354 100.688 25.562 100.336 25.9034 99.888C26.2447 99.44 26.4154 98.9387 26.4154 98.384C26.4154 97.6373 26.1594 97.1467 25.6474 96.912C25.1354 96.656 24.5594 96.528 23.9194 96.528C23.4927 96.528 23.066 96.5707 22.6394 96.656C22.234 96.72 21.9034 96.784 21.6474 96.848C20.4314 97.168 19.2474 97.7867 18.0954 98.704C16.9434 99.6 15.8874 100.667 14.9274 101.904C13.9887 103.141 13.1994 104.421 12.5594 105.744C12.154 106.597 11.7807 107.632 11.4394 108.848C11.098 110.064 10.9274 111.259 10.9274 112.432C10.9274 113.051 10.9807 113.648 11.0874 114.224C11.2154 114.779 11.418 115.291 11.6954 115.76C12.1434 116.528 12.762 117.061 13.5514 117.36C14.362 117.659 15.2047 117.808 16.0794 117.808C16.7407 117.808 17.3914 117.755 18.0314 117.648C18.6927 117.52 19.29 117.36 19.8234 117.168C20.506 116.933 21.1674 116.613 21.8074 116.208C22.4474 115.781 23.034 115.301 23.5674 114.768C24.1647 114.149 24.666 113.477 25.0714 112.752C25.498 112.027 25.7754 111.269 25.9034 110.48H24.2074C23.2687 110.48 22.298 110.491 21.2954 110.512C20.2927 110.512 19.5354 110.555 19.0234 110.64C19.0234 110.64 19.098 110.512 19.2474 110.256C19.3967 109.979 19.5887 109.669 19.8234 109.328C20.058 108.965 20.3034 108.656 20.5594 108.4C20.8367 108.123 21.0927 107.984 21.3274 107.984H30.7034C30.554 108.795 30.2874 109.371 29.9034 109.712C29.5194 110.053 29.0394 110.277 28.4634 110.384C28.3567 110.683 28.25 110.981 28.1434 111.28C28.0367 111.557 27.93 111.781 27.8234 111.952C26.6287 114.405 24.9967 116.229 22.9274 117.424C20.858 118.619 18.4474 119.216 15.6954 119.216ZM31.8309 118.192C31.2335 118.192 30.7855 117.979 30.4869 117.552C30.1882 117.104 30.0389 116.507 30.0389 115.76C30.0389 115.653 30.0389 115.547 30.0389 115.44C30.0389 115.333 30.0495 115.227 30.0709 115.12C30.1775 114.309 30.3589 113.392 30.6149 112.368C30.8922 111.344 31.2122 110.267 31.5749 109.136C31.7882 108.496 32.0549 107.696 32.3749 106.736C32.7162 105.755 33.1109 104.709 33.5589 103.6C34.0069 102.469 34.4975 101.349 35.0309 100.24C35.5855 99.1307 36.1935 98.128 36.8549 97.232C37.5162 96.3147 38.2095 95.5787 38.9349 95.024C39.6815 94.4693 40.4709 94.192 41.3029 94.192C41.9855 94.192 42.4549 94.3627 42.7109 94.704C42.9669 95.024 43.0949 95.408 43.0949 95.856C43.0949 96.3253 43.0095 96.8053 42.8389 97.296C42.6682 97.7653 42.4975 98.16 42.3269 98.48C41.9429 99.248 41.4415 100.112 40.8229 101.072C40.2042 102.032 39.5535 102.928 38.8709 103.76C38.4655 104.293 37.9642 104.891 37.3669 105.552C36.7695 106.213 36.2042 106.821 35.6709 107.376C35.1589 107.931 34.7855 108.315 34.5509 108.528L34.0389 110C33.8895 110.405 33.7402 110.885 33.5909 111.44C33.4629 111.995 33.3455 112.549 33.2389 113.104C33.1535 113.637 33.0789 114.107 33.0149 114.512C32.9935 114.597 32.9829 114.683 32.9829 114.768C32.9829 114.853 32.9829 114.928 32.9829 114.992C32.9829 115.632 33.2282 115.952 33.7189 115.952C34.0175 115.952 34.3909 115.813 34.8389 115.536C35.2655 115.28 35.6709 114.949 36.0549 114.544C36.4602 114.117 36.7482 113.797 36.9189 113.584C37.3455 113.029 37.7509 112.443 38.1349 111.824C38.5189 111.184 38.8495 110.597 39.1269 110.064C39.2335 109.893 39.3082 109.808 39.3509 109.808C39.4789 109.808 39.5429 109.989 39.5429 110.352C39.5429 110.523 39.5109 110.725 39.4469 110.96C39.4042 111.173 39.3295 111.376 39.2229 111.568C38.9242 112.08 38.5722 112.645 38.1669 113.264C37.7615 113.883 37.3455 114.48 36.9189 115.056C36.5989 115.483 36.1509 115.941 35.5749 116.432C34.9989 116.923 34.3802 117.339 33.7189 117.68C33.0575 118.021 32.4282 118.192 31.8309 118.192ZM35.1909 106.704C36.2575 105.445 37.3349 104.101 38.4229 102.672C39.5322 101.221 40.4495 99.7493 41.1749 98.256C41.2175 98.1493 41.3135 97.936 41.4629 97.616C41.6122 97.296 41.7509 96.944 41.8789 96.56C42.0069 96.1547 42.0709 95.8133 42.0709 95.536C42.0709 95.1733 41.9322 94.992 41.6549 94.992H41.4309C41.1535 94.992 40.8229 95.184 40.4389 95.568C40.0762 95.952 39.7029 96.464 39.3189 97.104C38.8282 97.9147 38.3482 98.8533 37.8789 99.92C37.4095 100.965 36.9509 102.075 36.5029 103.248C36.0549 104.421 35.6175 105.573 35.1909 106.704ZM47.8011 118.192C47.1398 118.192 46.6811 117.936 46.4251 117.424C46.1905 116.912 46.0731 116.283 46.0731 115.536C46.0731 114.853 46.1371 114.181 46.2651 113.52C46.3291 113.221 46.3931 112.923 46.4571 112.624C46.5425 112.304 46.6385 111.973 46.7451 111.632C46.3825 112.293 45.9985 112.933 45.5931 113.552C45.2091 114.171 44.8145 114.715 44.4091 115.184C43.7265 116.016 43.0011 116.709 42.2331 117.264C41.4865 117.819 40.7398 118.096 39.9931 118.096C39.3958 118.096 38.8838 117.883 38.4571 117.456C38.0518 117.008 37.8491 116.24 37.8491 115.152C37.8491 114.043 38.0411 112.901 38.4251 111.728C38.8091 110.555 39.3425 109.467 40.0251 108.464C40.7291 107.44 41.5505 106.619 42.4891 106C43.4491 105.381 44.4945 105.072 45.6251 105.072C45.9878 105.072 46.3825 105.125 46.8091 105.232C47.2358 105.339 47.6305 105.541 47.9931 105.84C48.3558 106.117 48.6011 106.512 48.7291 107.024C48.7505 106.981 48.7718 106.949 48.7931 106.928C48.8358 106.907 48.8678 106.885 48.8891 106.864C49.1878 106.395 49.5291 106 49.9131 105.68C50.2971 105.36 50.7238 105.2 51.1931 105.2C51.4278 105.2 51.7585 105.211 52.1851 105.232C52.6118 105.253 52.9211 105.253 53.1131 105.232C53.0065 105.317 52.8571 105.488 52.6651 105.744C52.4945 106 52.3345 106.267 52.1851 106.544C52.0358 106.8 51.9185 107.003 51.8331 107.152C51.2571 108.261 50.7345 109.36 50.2651 110.448C49.7958 111.536 49.4331 112.581 49.1771 113.584C49.1131 113.797 49.0705 114 49.0491 114.192C49.0278 114.363 49.0171 114.533 49.0171 114.704C49.0171 115.259 49.1985 115.536 49.5611 115.536C49.9025 115.536 50.3291 115.323 50.8411 114.896C51.5878 114.299 52.2385 113.552 52.7931 112.656C53.3691 111.76 53.8705 110.896 54.2971 110.064C54.3825 109.915 54.4571 109.84 54.5211 109.84C54.6491 109.84 54.7131 110.021 54.7131 110.384C54.7131 110.555 54.6811 110.747 54.6171 110.96C54.5745 111.173 54.4998 111.376 54.3931 111.568C54.0945 112.08 53.6998 112.709 53.2091 113.456C52.7398 114.203 52.2065 114.939 51.6091 115.664C51.0118 116.368 50.3825 116.965 49.7211 117.456C49.0811 117.947 48.4411 118.192 47.8011 118.192ZM41.4331 115.408C41.4971 115.429 41.5931 115.44 41.7211 115.44C42.1265 115.44 42.5638 115.269 43.0331 114.928C43.5025 114.587 43.9718 114.149 44.4411 113.616C44.9105 113.061 45.3265 112.507 45.6891 111.952C46.6278 110.459 47.3211 109.339 47.7691 108.592C48.2171 107.845 48.4731 107.419 48.5371 107.312C48.4305 106.949 48.2385 106.683 47.9611 106.512C47.7051 106.341 47.3958 106.256 47.0331 106.256C46.5638 106.256 46.0625 106.384 45.5291 106.64C45.0171 106.896 44.5798 107.205 44.2171 107.568C43.6625 108.123 43.1291 108.837 42.6171 109.712C42.1265 110.587 41.7211 111.451 41.4011 112.304C41.1025 113.157 40.9531 113.872 40.9531 114.448C40.9531 114.981 41.1131 115.301 41.4331 115.408ZM69.0061 118.192C68.2808 118.192 67.7795 117.979 67.5021 117.552C67.2461 117.104 67.1181 116.592 67.1181 116.016C67.1181 115.397 67.2141 114.683 67.4061 113.872C67.6195 113.04 67.8755 112.187 68.1741 111.312C68.4941 110.416 68.8141 109.584 69.1341 108.816C69.2408 108.56 69.3368 108.283 69.4221 107.984C69.5288 107.685 69.5821 107.419 69.5821 107.184C69.5821 106.757 69.3901 106.544 69.0061 106.544C68.8568 106.544 68.6861 106.576 68.4941 106.64C68.3021 106.683 68.0781 106.779 67.8221 106.928C67.3741 107.141 66.9475 107.44 66.5421 107.824C66.1368 108.187 65.8488 108.464 65.6781 108.656C64.8675 109.701 64.2488 110.832 63.8221 112.048C63.4168 113.264 62.9901 114.501 62.5421 115.76C62.4141 116.123 62.2861 116.496 62.1581 116.88C62.0301 117.264 61.9128 117.637 61.8061 118H58.6701C59.0328 116.976 59.3955 115.963 59.7581 114.96C60.1421 113.936 60.5261 112.923 60.9101 111.92C61.1448 111.344 61.3581 110.789 61.5501 110.256C61.7421 109.701 61.9128 109.189 62.0621 108.72C62.1475 108.485 62.2221 108.24 62.2861 107.984C62.3501 107.728 62.3821 107.493 62.3821 107.28C62.3821 106.789 62.1688 106.544 61.7421 106.544C61.5928 106.544 61.4115 106.576 61.1981 106.64C61.0061 106.683 60.7715 106.779 60.4941 106.928C60.0461 107.141 59.6195 107.44 59.2141 107.824C58.8088 108.187 58.5315 108.464 58.3821 108.656C58.1048 108.997 57.8381 109.381 57.5821 109.808C57.3261 110.213 57.1021 110.629 56.9101 111.056C56.4835 111.973 56.1421 112.848 55.8861 113.68C55.6515 114.491 55.4275 115.184 55.2141 115.76C55.0861 116.123 54.9581 116.496 54.8301 116.88C54.7021 117.264 54.5848 117.637 54.4781 118H51.3741C51.3741 118 51.4488 117.733 51.5981 117.2C51.7475 116.667 51.9288 116.133 52.1421 115.6L54.2221 110.288C54.2861 110.117 54.3821 109.84 54.5101 109.456C54.6595 109.051 54.8088 108.613 54.9581 108.144C55.1075 107.653 55.2355 107.184 55.3421 106.736C55.4488 106.267 55.5021 105.883 55.5021 105.584C55.5021 105.392 55.4808 105.264 55.4381 105.2C55.6301 105.2 55.8435 105.2 56.0781 105.2C56.3341 105.179 56.5688 105.168 56.7821 105.168C57.0808 105.168 57.3581 105.179 57.6141 105.2C57.8915 105.221 58.0728 105.275 58.1581 105.36C58.3928 105.531 58.5101 105.787 58.5101 106.128C58.5101 106.405 58.4568 106.683 58.3501 106.96C58.2435 107.216 58.1688 107.429 58.1261 107.6C58.4248 107.323 58.7555 107.056 59.1181 106.8C59.4808 106.544 60.0035 106.213 60.6861 105.808C61.1128 105.573 61.6141 105.381 62.1901 105.232C62.7661 105.083 63.2888 105.008 63.7581 105.008C64.8888 105.008 65.4541 105.477 65.4541 106.416C65.4541 106.8 65.3368 107.312 65.1021 107.952C65.5501 107.504 66.0088 107.12 66.4781 106.8C66.9688 106.459 67.4808 106.128 68.0141 105.808C68.4408 105.573 68.9421 105.381 69.5181 105.232C70.0941 105.083 70.6168 105.008 71.0861 105.008C72.2168 105.008 72.7821 105.488 72.7821 106.448C72.7821 106.661 72.7395 106.907 72.6541 107.184C72.5901 107.461 72.4941 107.771 72.3661 108.112C72.2381 108.453 72.0568 108.923 71.8221 109.52C71.5875 110.096 71.3421 110.715 71.0861 111.376C70.8515 112.016 70.6488 112.635 70.4781 113.232C70.3288 113.808 70.2541 114.288 70.2541 114.672C70.2541 114.907 70.2861 115.12 70.3501 115.312C70.4355 115.483 70.5848 115.568 70.7981 115.568C70.9475 115.568 71.1608 115.493 71.4381 115.344C71.8221 115.109 72.2061 114.8 72.5901 114.416C72.9741 114.032 73.2301 113.755 73.3581 113.584C73.7848 113.029 74.1901 112.443 74.5741 111.824C74.9581 111.184 75.2888 110.597 75.5661 110.064C75.6728 109.893 75.7475 109.808 75.7901 109.808C75.9181 109.808 75.9821 109.989 75.9821 110.352C75.9821 110.523 75.9501 110.725 75.8861 110.96C75.8435 111.173 75.7688 111.376 75.6621 111.568C75.3635 112.08 75.0115 112.645 74.6061 113.264C74.2008 113.883 73.7848 114.48 73.3581 115.056C73.0595 115.461 72.6648 115.909 72.1741 116.4C71.6835 116.891 71.1608 117.317 70.6061 117.68C70.0515 118.021 69.5181 118.192 69.0061 118.192ZM83.2091 118.64C82.1425 118.64 81.1505 118.544 80.2331 118.352C79.3158 118.16 78.5478 117.84 77.9291 117.392C77.5025 117.072 77.1718 116.667 76.9371 116.176C76.7238 115.685 76.6171 115.184 76.6171 114.672C76.6171 114.032 76.7985 113.435 77.1611 112.88C77.5238 112.325 78.0998 111.952 78.8891 111.76C78.9958 111.739 79.0918 111.728 79.1771 111.728C79.2838 111.707 79.3798 111.696 79.4651 111.696C79.8918 111.696 80.2651 111.792 80.5851 111.984C80.9265 112.176 81.1611 112.4 81.2891 112.656C81.2038 112.72 81.0865 112.837 80.9371 113.008C80.7878 113.157 80.6918 113.285 80.6491 113.392C80.3291 113.925 80.1691 114.459 80.1691 114.992C80.1691 115.717 80.4465 116.315 81.0011 116.784C81.5771 117.232 82.3238 117.456 83.2411 117.456C84.0731 117.456 84.8518 117.253 85.5771 116.848C86.3238 116.421 86.9211 115.856 87.3691 115.152C87.8385 114.448 88.0731 113.637 88.0731 112.72C88.0731 112.037 87.9131 111.312 87.5931 110.544C87.3158 109.883 86.9318 109.296 86.4411 108.784C85.9718 108.272 85.5238 107.792 85.0971 107.344C84.5211 106.725 83.9665 106.128 83.4331 105.552C82.9211 104.955 82.4945 104.315 82.1531 103.632C81.8331 102.928 81.6731 102.139 81.6731 101.264C81.6731 100.432 81.8438 99.6213 82.1851 98.832C82.5478 98.0427 83.0598 97.3707 83.7211 96.816C84.4678 96.176 85.3211 95.728 86.2811 95.472C87.2411 95.216 88.2438 95.088 89.2891 95.088C90.5905 95.088 91.6145 95.2587 92.3611 95.6C93.1291 95.92 93.6731 96.336 93.9931 96.848C94.3345 97.36 94.5051 97.904 94.5051 98.48C94.5051 99.0347 94.3771 99.568 94.1211 100.08C93.8865 100.592 93.5558 101.029 93.1291 101.392C92.7025 101.733 92.2331 101.947 91.7211 102.032C91.6358 102.053 91.5505 102.064 91.4651 102.064C91.3798 102.064 91.2838 102.064 91.1771 102.064C90.7078 102.064 90.2918 101.957 89.9291 101.744C89.5878 101.531 89.4171 101.168 89.4171 100.656C89.4171 100.592 89.4171 100.517 89.4171 100.432C89.4385 100.347 89.4598 100.261 89.4811 100.176C89.8651 100.176 90.2598 100.037 90.6651 99.76C91.0705 99.4827 91.3371 99.1733 91.4651 98.832C91.5718 98.5547 91.6251 98.2987 91.6251 98.064C91.6251 97.488 91.3585 97.04 90.8251 96.72C90.3131 96.3787 89.7051 96.208 89.0011 96.208C88.1691 96.208 87.4225 96.3893 86.7611 96.752C86.1211 97.0933 85.6198 97.552 85.2571 98.128C84.8945 98.6827 84.7131 99.2907 84.7131 99.952C84.7131 100.613 84.9158 101.253 85.3211 101.872C85.6625 102.363 86.0891 102.875 86.6011 103.408C87.1131 103.92 87.6358 104.421 88.1691 104.912C88.7025 105.381 89.1611 105.819 89.5451 106.224C90.4198 107.077 91.0491 107.952 91.4331 108.848C91.8171 109.723 92.0091 110.587 92.0091 111.44C92.0091 112.421 91.7745 113.349 91.3051 114.224C90.8571 115.077 90.2278 115.835 89.4171 116.496C88.6065 117.157 87.6678 117.68 86.6011 118.064C85.5345 118.448 84.4038 118.64 83.2091 118.64ZM87.7991 125.936C87.9058 125.787 88.0445 125.52 88.2151 125.136C88.3858 124.773 88.5671 124.379 88.7591 123.952C88.9511 123.525 89.1111 123.163 89.2391 122.864C89.6018 121.968 90.0178 120.869 90.4871 119.568C90.9565 118.288 91.4365 116.944 91.9271 115.536C92.4178 114.128 92.8871 112.784 93.3351 111.504C93.7831 110.224 94.1778 109.168 94.5191 108.336C94.8391 107.568 95.1165 106.96 95.3511 106.512C95.5858 106.043 95.9165 105.712 96.3431 105.52C96.7911 105.307 97.4631 105.2 98.3591 105.2H99.3191C99.0205 105.413 98.6258 105.904 98.1351 106.672C97.6658 107.419 97.2178 108.208 96.7911 109.04C96.9405 108.848 97.0791 108.667 97.2071 108.496C97.3351 108.304 97.4738 108.133 97.6231 107.984C98.3058 107.152 99.0311 106.459 99.7991 105.904C100.567 105.349 101.314 105.072 102.039 105.072C102.636 105.072 103.138 105.296 103.543 105.744C103.97 106.192 104.183 106.949 104.183 108.016C104.183 108.997 103.991 109.989 103.607 110.992C103.244 111.973 102.754 112.912 102.135 113.808C101.516 114.683 100.834 115.461 100.087 116.144C99.9378 116.293 99.7671 116.443 99.5751 116.592C99.4045 116.72 99.2231 116.848 99.0311 116.976C99.7138 117.04 100.386 116.88 101.047 116.496C101.73 116.112 102.348 115.643 102.903 115.088C103.479 114.533 103.948 114.032 104.311 113.584C104.738 113.029 105.164 112.389 105.591 111.664C106.039 110.939 106.402 110.299 106.679 109.744C106.764 109.595 106.839 109.52 106.903 109.52C107.074 109.52 107.159 109.712 107.159 110.096C107.159 110.437 107.052 110.789 106.839 111.152C106.668 111.472 106.434 111.877 106.135 112.368C105.836 112.859 105.57 113.285 105.335 113.648C104.354 115.077 103.212 116.251 101.911 117.168C100.61 118.085 99.0418 118.544 97.2071 118.544C97.0578 118.544 96.8978 118.544 96.7271 118.544C96.5778 118.544 96.4178 118.533 96.2471 118.512C95.7351 118.469 95.2551 118.341 94.8071 118.128C94.3591 117.936 94.0605 117.563 93.9111 117.008L92.1191 122.608C91.8845 123.355 91.6711 123.973 91.4791 124.464C91.2658 124.955 91.0098 125.317 90.7111 125.552C90.3911 125.808 89.9325 125.936 89.3351 125.936H87.7991ZM95.5111 117.168C95.8738 117.168 96.2898 116.987 96.7591 116.624C97.2285 116.24 97.6871 115.771 98.1351 115.216C98.6045 114.64 98.9991 114.085 99.3191 113.552C99.8098 112.699 100.226 111.824 100.567 110.928C100.908 110.032 101.079 109.296 101.079 108.72C101.079 108.08 100.823 107.76 100.311 107.76C99.8631 107.76 99.3725 107.973 98.8391 108.4C98.4551 108.699 98.0178 109.136 97.5271 109.712C97.0578 110.288 96.5885 110.939 96.1191 111.664C95.6711 112.368 95.2978 113.093 94.9991 113.84C94.7218 114.565 94.5831 115.227 94.5831 115.824C94.5831 115.931 94.5831 116.037 94.5831 116.144C94.6045 116.229 94.6258 116.325 94.6471 116.432C94.7538 116.923 95.0418 117.168 95.5111 117.168ZM109.033 118.256C108.052 118.256 107.198 117.947 106.473 117.328C105.769 116.709 105.417 115.717 105.417 114.352C105.417 113.349 105.598 112.304 105.961 111.216C106.324 110.128 106.836 109.115 107.497 108.176C108.18 107.237 109.001 106.469 109.961 105.872C110.921 105.275 111.998 104.976 113.193 104.976C114.174 104.976 114.932 105.168 115.465 105.552C116.02 105.915 116.414 106.405 116.649 107.024C116.884 107.643 117.001 108.304 117.001 109.008C117.001 109.541 116.937 110.085 116.809 110.64C116.702 111.173 116.542 111.707 116.329 112.24C116.692 112.667 117.15 112.88 117.705 112.88C118.302 112.88 118.857 112.656 119.369 112.208C119.668 111.952 119.934 111.632 120.169 111.248C120.425 110.843 120.649 110.469 120.841 110.128C120.905 110 120.98 109.936 121.065 109.936C121.172 109.936 121.225 110.085 121.225 110.384C121.225 110.576 121.193 110.8 121.129 111.056C121.086 111.312 120.98 111.568 120.809 111.824C120.489 112.379 120.158 112.805 119.817 113.104C119.476 113.381 119.092 113.605 118.665 113.776C118.345 113.904 118.004 113.968 117.641 113.968C116.98 113.968 116.382 113.765 115.849 113.36C115.678 113.723 115.465 114.096 115.209 114.48C114.59 115.525 113.79 116.421 112.809 117.168C111.828 117.893 110.569 118.256 109.033 118.256ZM110.249 117.04C110.74 117.04 111.209 116.88 111.657 116.56C112.126 116.219 112.553 115.803 112.937 115.312C113.321 114.821 113.652 114.309 113.929 113.776C114.228 113.243 114.473 112.773 114.665 112.368C113.94 111.749 113.577 110.971 113.577 110.032C113.577 109.413 113.748 108.933 114.089 108.592C114.43 108.251 114.9 108.101 115.497 108.144C115.476 107.653 115.348 107.248 115.113 106.928C114.878 106.608 114.494 106.448 113.961 106.448C113.47 106.448 113.001 106.597 112.553 106.896C112.126 107.195 111.721 107.579 111.337 108.048C110.974 108.496 110.644 108.965 110.345 109.456C110.068 109.925 109.833 110.352 109.641 110.736C109.364 111.291 109.108 111.963 108.873 112.752C108.638 113.541 108.521 114.277 108.521 114.96C108.521 115.557 108.638 116.059 108.873 116.464C109.129 116.848 109.588 117.04 110.249 117.04ZM122.352 118.192C121.733 118.192 121.264 117.947 120.944 117.456C120.795 117.221 120.688 116.944 120.624 116.624C120.56 116.304 120.528 115.973 120.528 115.632C120.528 115.291 120.549 114.949 120.592 114.608C120.635 114.245 120.688 113.893 120.752 113.552C120.859 112.997 120.976 112.496 121.104 112.048C121.253 111.579 121.403 111.131 121.552 110.704V110.672C121.381 110.992 121.168 111.344 120.912 111.728C120.656 112.091 120.475 112.357 120.368 112.528C120.219 112.763 120.101 112.88 120.016 112.88C119.931 112.88 119.888 112.784 119.888 112.592C119.888 112.165 120.016 111.696 120.272 111.184C120.443 110.843 120.677 110.405 120.976 109.872C121.275 109.317 121.584 108.72 121.904 108.08C122.224 107.44 122.501 106.821 122.736 106.224H120.592C120.485 106.224 120.464 106.139 120.528 105.968C120.592 105.797 120.688 105.637 120.816 105.488C120.944 105.317 121.04 105.232 121.104 105.232H123.536C123.771 104.677 124.037 104.08 124.336 103.44C124.656 102.8 125.008 102.203 125.392 101.648C125.797 101.072 126.235 100.603 126.704 100.24C127.173 99.8773 127.675 99.696 128.208 99.696C128.443 99.696 128.731 99.696 129.072 99.696C129.435 99.696 129.659 99.6853 129.744 99.664C129.296 99.9627 128.773 100.56 128.176 101.456C127.579 102.331 126.928 103.589 126.224 105.232H129.456C129.52 105.232 129.499 105.317 129.392 105.488C129.285 105.637 129.147 105.797 128.976 105.968C128.827 106.139 128.677 106.224 128.528 106.224H125.776C125.499 106.928 125.189 107.696 124.848 108.528C124.528 109.36 124.229 110.181 123.952 110.992C123.696 111.781 123.504 112.507 123.376 113.168C123.291 113.573 123.248 113.947 123.248 114.288C123.248 115.099 123.504 115.504 124.016 115.504C124.357 115.504 124.763 115.333 125.232 114.992C125.701 114.651 126.171 114.181 126.64 113.584C127.067 113.029 127.472 112.432 127.856 111.792C128.261 111.152 128.603 110.565 128.88 110.032C128.965 109.883 129.04 109.808 129.104 109.808C129.232 109.808 129.296 109.979 129.296 110.32C129.296 110.491 129.264 110.693 129.2 110.928C129.157 111.141 129.072 111.355 128.944 111.568C128.645 112.08 128.293 112.645 127.888 113.264C127.483 113.861 127.067 114.459 126.64 115.056C126.341 115.44 125.947 115.877 125.456 116.368C124.987 116.859 124.475 117.285 123.92 117.648C123.387 118.011 122.864 118.192 122.352 118.192Z" fill="#EA4C89"/>
<path d="M59.6127 0.350277C48.5057 2.6727 40.2311 8.20228 34.1222 17.2155C29.2907 24.3487 27.6247 30.5418 28.069 39.9974C28.3466 47.3517 29.9016 52.7707 33.0671 57.8026L34.8997 60.6227L34.8442 57.4155C34.8442 54.5954 35.2329 53.4342 37.7875 48.347C40.6753 42.5963 40.6753 42.541 40.6753 37.2879C40.6753 33.6383 41.0086 30.9289 41.7305 28.6064C44.6738 19.2614 52.9485 12.2389 62.8337 10.6906C73.2742 9.08701 84.2701 14.8378 89.3237 24.4039C91.9894 29.4359 92.4892 32.7536 92.045 43.3704C91.6007 53.2684 92.2116 57.7473 94.4885 62.1157L95.5436 64.1616L98.3204 59.9038C107.373 46.1352 107.206 29.6018 97.9316 16.2202C93.4333 9.63997 84.2701 3.28096 76.4397 1.17971C72.4967 0.0737991 63.0003 -0.368568 59.6127 0.350277Z" fill="#EA4C89"/>
<path d="M61.3343 14.5057C57.6135 16.3304 53.7816 20.6435 50.7272 26.4496C49.3944 28.9932 47.5617 32.0897 46.7287 33.3615C45.8402 34.6886 45.3403 35.7393 45.618 35.7393C46.451 35.7393 53.2263 29.2144 56.5028 25.2331C61.3899 19.2611 66.5546 16.2751 73.3854 15.3904L76.4953 14.948L73.7741 14.008C69.609 12.5703 64.833 12.7915 61.3343 14.5057Z" fill="#EA4C89"/>
<path d="M53.1149 16.8835C50.1715 18.9847 48.0057 21.1966 46.3396 23.8508C44.7847 26.2285 42.8965 31.7581 42.8965 33.6934C42.952 34.9099 42.952 34.9099 43.785 33.804C44.2849 33.1958 45.9509 30.3204 47.5059 27.445C49.0608 24.5696 51.5044 20.6436 53.0038 18.7636C54.4477 16.8282 55.5584 15.2799 55.4473 15.2799C55.3363 15.2799 54.2811 15.9988 53.1149 16.8835Z" fill="#EA4C89"/>
<path d="M68.9425 18.8191C63.7778 20.9203 61.9452 22.3027 56.947 28.1088C54.3369 31.1501 50.6716 34.7443 48.839 36.0714C46.0622 38.1173 45.7846 38.5044 46.8953 38.5044C48.4502 38.5044 53.5039 36.8455 56.1695 35.5184C57.1136 35.0208 60.1125 32.4772 62.8337 29.9335C69.9422 23.2428 76.7174 20.2568 82.3264 21.418C84.6033 21.9157 84.9921 21.6945 83.9924 20.5333C81.3268 17.3261 74.3849 16.552 68.9425 18.8191Z" fill="#EA4C89"/>
<path d="M75.2737 24.3487C71.8305 25.4546 69.2204 27.2241 64.1667 31.9242C59.1131 36.6797 54.5592 39.2233 49.0058 40.3845L45.396 41.1033L47.6174 41.7669C51.0605 42.7069 55.8365 42.4857 59.2241 41.2692C60.8902 40.6057 65.8883 37.5091 70.3311 34.3572C78.8834 28.33 82.7153 26.5605 86.0474 27.0582C87.769 27.3347 87.88 27.2794 87.2136 26.5052C85.1033 23.9616 79.772 22.9663 75.2737 24.3487Z" fill="#EA4C89"/>
<path d="M88.4351 33.6381C88.4351 35.0205 87.9353 37.7853 87.3244 39.7207C85.9916 43.9232 85.936 46.6879 87.0467 49.3974C87.491 50.4481 87.8798 52.0516 87.8798 52.9364C87.8798 54.2082 87.6576 54.5399 86.658 54.5399C84.6032 54.5399 83.8257 55.3141 84.27 56.8071C85.7139 61.5072 91.5451 68.198 96.2655 70.5757C97.4317 71.184 98.4869 71.6816 98.598 71.6816C98.7646 71.6816 97.876 70.631 96.7098 69.3592C90.9897 63.1108 89.3792 57.0836 89.6569 42.5408C89.7679 35.0205 89.6569 32.311 89.1571 31.8134C88.5462 31.2604 88.4351 31.5922 88.4351 33.6381Z" fill="#EA4C89"/>
<path d="M65.5548 41.1589C61.5008 45.306 59.7792 50.8356 60.279 57.6923C61.0565 68.0879 66.6655 73.341 82.8816 78.9812C87.3244 80.4742 91.3784 81.9672 91.9338 82.2436C93.4332 83.0731 93.1 81.5801 91.2674 79.0365C89.2681 76.327 85.9916 74.281 78.4389 71.1292C71.3304 68.1432 67.1653 64.4384 65.4437 59.6277C64.0554 55.5911 64.3886 49.1215 66.3878 43.5366C67.2208 41.2695 67.7762 39.3341 67.7207 39.2235C67.6096 39.1682 66.6655 39.9977 65.5548 41.1589Z" fill="#EA4C89"/>
<path d="M40.2867 48.4026C36.8991 55.3146 36.5659 56.8629 37.6766 60.5677C38.5651 63.6643 39.5092 64.7149 39.1205 62.3372C38.5096 58.19 41.3974 50.5592 45.1737 46.5779C46.451 45.1402 47.3396 44.0343 47.173 44.0343C47.0619 44.0343 46.0623 43.7025 45.0627 43.3154L43.1745 42.5413L40.2867 48.4026Z" fill="#EA4C89"/>
<path d="M57.9467 45.7481C55.0589 49.6741 53.7261 54.5955 53.7261 61.1757V66.9817L55.8919 70.1889C59.1129 74.9443 63.6668 78.428 76.1066 85.3952C80.3827 87.7729 80.7715 87.6071 79.3276 84.234C78.2724 81.801 75.0514 78.9809 70.2199 76.1608C65.7771 73.6172 63.0559 71.1289 60.9456 67.7559C57.7246 62.724 56.9471 53.766 59.224 47.1858C59.8904 45.1399 60.2792 43.481 60.0015 43.481C59.7794 43.481 58.8353 44.4763 57.9467 45.7481Z" fill="#EA4C89"/>
<path d="M49.3941 45.6372C47.0617 47.1302 43.674 51.8856 42.6189 55.1481C40.7862 60.5671 41.7303 67.2026 44.8403 70.8521L45.7844 71.958L45.3956 70.8521C44.5071 68.3085 44.1739 63.4425 44.6181 60.3459C45.3401 55.2587 46.9506 51.2221 50.3382 46.0796C51.56 44.3101 51.4489 44.2548 49.3941 45.6372Z" fill="#EA4C89"/>
<path d="M52.7819 46.7988C45.84 54.8167 44.7849 67.2029 50.2828 75.3314C51.9488 77.8197 59.1684 84.3999 60.2235 84.3999C60.4457 84.3999 60.6678 83.9022 60.6678 83.294C60.6678 81.1927 58.7796 77.4879 56.0029 74.1702C51.338 68.5853 50.1162 64.3275 51.2269 57.5814C51.5601 55.4249 52.6708 51.6648 53.6704 49.1212C54.67 46.6329 55.3365 44.5869 55.0588 44.5869C54.8367 44.5869 53.7815 45.5823 52.7819 46.7988Z" fill="#EA4C89"/>
<path d="M81.2155 59.904C81.0489 63.277 81.2711 64.3276 82.715 66.3736C84.381 68.7513 88.4906 71.2949 91.6561 71.8479C93.9885 72.2902 93.933 71.7373 91.4339 70.0784C88.7683 68.2537 85.214 64.1618 83.8257 61.2864C82.6039 58.9087 81.3266 58.1898 81.2155 59.904Z" fill="#EA4C89"/>
<path d="M71.2195 64.1614C71.2195 64.272 71.6638 64.7144 72.2191 65.1015C73.0521 65.8203 73.1077 65.765 72.3857 64.8803C71.6638 63.9955 71.2195 63.7191 71.2195 64.1614Z" fill="#EA4C89"/>
<path d="M78.55 65.6548C77.9947 66.5395 77.3838 66.7607 76.162 66.5948C75.2735 66.4289 74.5515 66.4289 74.5515 66.5395C74.5515 66.816 77.2172 67.8113 79.6052 68.309L81.771 68.8066L80.7159 67.3137C80.1605 66.5395 79.6052 65.5442 79.4941 65.1571C79.3275 64.7148 78.9943 64.8806 78.55 65.6548Z" fill="#EA4C89"/>
</svg>
