<svg width="125" height="142" viewBox="0 0 125 142" fill="none" xmlns="http://www.w3.org/2000/svg">
<path d="M51.3193 1.52093C33.2885 5.28613 19.8556 14.2509 9.93871 28.8634C2.09534 40.4279 -0.609274 50.4685 0.111955 65.7982C0.562724 77.7213 3.08703 86.5067 8.22579 94.6647L11.2009 99.2367L11.1107 94.0371C11.1107 89.4651 11.7418 87.5825 15.8889 79.3349C20.5769 70.0116 20.5769 69.922 20.5769 61.4054C20.5769 55.4887 21.1178 51.096 22.2898 47.3308C27.0679 32.1804 40.5008 20.7951 56.5482 18.285C73.4971 15.6852 91.3475 25.0086 99.5515 40.5176C103.879 48.6755 104.69 54.0544 103.969 71.2667C103.248 87.3136 104.24 94.575 107.936 101.657L109.649 104.974L114.156 98.0713C128.852 75.749 128.581 48.9444 113.525 27.2498C106.223 16.5817 91.3475 6.27225 78.6359 2.86564C72.235 1.07269 56.8187 0.355515 51.3193 1.52093Z" fill="white"/>
<path d="M54.1142 24.4709C48.0739 27.4292 41.8533 34.4217 36.8948 43.8347C34.7312 47.9585 31.7561 52.9788 30.4038 55.0407C28.9613 57.1922 28.1499 58.8955 28.6007 58.8955C29.953 58.8955 40.9518 48.3171 46.2708 41.8625C54.2044 32.1806 62.5887 27.3396 73.6776 25.9052L78.7262 25.188L74.3087 23.664C67.5471 21.3332 59.7939 21.6918 54.1142 24.4709Z" fill="white"/>
<path d="M40.7711 28.3248C35.993 31.7314 32.477 35.3174 29.7724 39.6204C27.2481 43.4753 24.1828 52.44 24.1828 55.5777C24.273 57.5499 24.273 57.5499 25.6253 55.757C26.4367 54.7709 29.1413 50.1092 31.6656 45.4475C34.1899 40.7858 38.1567 34.4209 40.5908 31.3729C42.9348 28.2352 44.7379 25.7251 44.5576 25.7251C44.3773 25.7251 42.6643 26.8905 40.7711 28.3248Z" fill="white"/>
<path d="M66.4653 31.4629C58.081 34.8695 55.1059 37.1107 46.9921 46.5237C42.7548 51.4543 36.8047 57.2814 33.8296 59.433C29.3219 62.7499 28.8711 63.3774 30.6742 63.3774C33.1985 63.3774 41.4025 60.688 45.7299 58.5365C47.2625 57.7296 52.1308 53.6059 56.5483 49.4821C68.088 38.6347 79.0868 33.7938 88.1923 35.6764C91.8886 36.4832 92.5197 36.1246 90.8969 34.242C86.5695 29.0425 75.3003 27.7874 66.4653 31.4629Z" fill="white"/>
<path d="M76.7428 40.4279C71.1532 42.2209 66.916 45.0896 58.712 52.7096C50.508 60.4193 43.1154 64.5431 34.1 66.4257L28.2401 67.5911L31.8462 68.6669C37.4357 70.1909 45.189 69.8323 50.6883 67.8601C53.3929 66.7843 61.5068 61.764 68.7191 56.6541C82.6028 46.8826 88.8234 44.0138 94.2326 44.8207C97.0274 45.2689 97.2077 45.1793 96.1258 43.9242C92.7 39.8004 84.0452 38.1867 76.7428 40.4279Z" fill="white"/>
<path d="M98.1091 55.4881C98.1091 57.7292 97.2977 62.2116 96.306 65.3493C94.1424 72.1625 94.0522 76.6449 95.8553 81.0376C96.5765 82.7409 97.2076 85.3407 97.2076 86.775C97.2076 88.8369 96.847 89.3748 95.2242 89.3748C91.8885 89.3748 90.6264 90.6299 91.3476 93.0504C93.6916 100.67 103.158 111.518 110.821 115.373C112.714 116.359 114.427 117.166 114.607 117.166C114.878 117.166 113.435 115.462 111.542 113.4C102.256 103.27 99.6417 93.4986 100.093 69.9213C100.273 57.7292 100.093 53.3365 99.2811 52.5297C98.2894 51.6332 98.1091 52.1711 98.1091 55.4881Z" fill="white"/>
<path d="M60.9657 67.6816C54.3845 74.4052 51.5897 83.3699 52.4011 94.4862C53.6632 111.34 62.7687 119.856 89.0936 129.001C96.3059 131.421 102.887 133.841 103.789 134.29C106.223 135.634 105.682 133.214 102.707 129.09C99.4613 124.697 94.1423 121.38 81.8813 116.271C70.3417 111.43 63.5801 105.423 60.7854 97.6239C58.5315 91.0796 59.0724 80.5909 62.318 71.5365C63.6703 67.8609 64.5718 64.7233 64.4817 64.544C64.3014 64.4543 62.7688 65.799 60.9657 67.6816Z" fill="white"/>
<path d="M19.9461 79.4243C14.4468 90.6302 13.9058 93.1403 15.7089 99.1467C17.1514 104.167 18.684 105.87 18.0529 102.015C17.0612 95.2919 21.7492 82.9205 27.8797 76.4659C29.9532 74.1351 31.3957 72.3421 31.1252 72.3421C30.9449 72.3421 29.3221 71.8042 27.6994 71.1767L24.6341 69.9216L19.9461 79.4243Z" fill="white"/>
<path d="M48.6149 75.1215C43.9269 81.4865 41.7632 89.4651 41.7632 100.133V109.546L45.2792 114.746C50.5081 122.455 57.9007 128.103 78.0951 139.399C85.037 143.254 85.6681 142.985 83.3241 137.516C81.6111 133.572 76.3822 129 68.5388 124.428C61.3265 120.304 56.909 116.27 53.4832 110.801C48.2543 102.643 46.9921 88.1204 50.6884 77.4524C51.7702 74.1354 52.4013 71.446 51.9506 71.446C51.5899 71.446 50.0573 73.0596 48.6149 75.1215Z" fill="white"/>
<path d="M34.7309 74.9421C30.9444 77.3625 25.445 85.0722 23.7321 90.3614C20.757 99.1469 22.2896 109.905 27.3383 115.821L28.8709 117.614L28.2398 115.821C26.7973 111.698 26.2564 103.809 26.9776 98.7883C28.1496 90.5407 30.7641 83.9964 36.2635 75.6592C38.2469 72.7905 38.0666 72.7009 34.7309 74.9421Z" fill="white"/>
<path d="M40.2303 76.8244C28.961 89.8233 27.2481 109.904 36.1733 123.082C38.878 127.117 50.5979 137.785 52.3109 137.785C52.6715 137.785 53.0321 136.978 53.0321 135.992C53.0321 132.585 49.9669 126.579 45.4592 121.2C37.8863 112.145 35.9029 105.243 37.706 94.3056C38.2469 90.8094 40.05 84.7134 41.6727 80.5896C43.2955 76.5554 44.3773 73.2385 43.9266 73.2385C43.566 73.2385 41.853 74.8521 40.2303 76.8244Z" fill="white"/>
<path d="M86.3889 98.0714C86.1184 103.54 86.479 105.243 88.823 108.56C91.5277 112.415 98.199 116.539 103.338 117.435C107.124 118.152 107.034 117.256 102.977 114.567C98.6498 111.608 92.88 104.974 90.6261 100.313C88.6427 96.4577 86.5692 95.2923 86.3889 98.0714Z" fill="white"/>
<path d="M70.1613 104.973C70.1613 105.153 70.8825 105.87 71.7841 106.497C73.1364 107.663 73.2265 107.573 72.0545 106.139C70.8825 104.704 70.1613 104.256 70.1613 104.973Z" fill="white"/>
<path d="M82.0619 107.395C81.1603 108.829 80.1686 109.188 78.1853 108.919C76.7428 108.65 75.5708 108.65 75.5708 108.829C75.5708 109.278 79.8982 110.891 83.7748 111.698L87.2908 112.505L85.5779 110.084C84.6763 108.829 83.7748 107.216 83.5945 106.588C83.324 105.871 82.7831 106.14 82.0619 107.395Z" fill="white"/>
</svg>
