<svg width="193" height="51" viewBox="0 0 193 51" fill="none" xmlns="http://www.w3.org/2000/svg">
<path d="M14.399 39.9C12.8657 39.9 11.249 39.7167 9.54902 39.35C7.88236 39.0167 6.48236 38.4833 5.34902 37.75C3.78236 36.6833 2.63236 35.3167 1.89902 33.65C1.16569 31.9833 0.799024 30.1667 0.799024 28.2C0.799024 26.2333 1.11569 24.1833 1.74902 22.05C2.41569 19.9167 3.36569 17.8333 4.59902 15.8C5.83236 13.7333 7.28236 11.8333 8.94902 10.1C10.649 8.33333 12.549 6.83333 14.649 5.6C16.749 4.36666 18.9824 3.51666 21.349 3.05C22.849 2.75 24.2824 2.6 25.649 2.6C28.3157 2.6 30.449 3.13333 32.049 4.2C33.649 5.23333 34.449 6.56667 34.449 8.2C34.449 8.53333 34.4157 8.86667 34.349 9.2C34.3157 9.5 34.2157 9.83333 34.049 10.2C33.6824 11.1667 33.0657 12.0333 32.199 12.8C31.3657 13.5333 30.399 14.1 29.299 14.5C28.2324 14.9 27.1324 15.0667 25.999 15C25.4657 14.9333 24.999 14.75 24.599 14.45C24.2324 14.1167 24.049 13.7167 24.049 13.25C24.049 12.7833 24.249 12.2833 24.649 11.75C25.0157 11.8833 25.4324 11.95 25.899 11.95C26.7324 11.95 27.549 11.75 28.349 11.35C29.149 10.95 29.8157 10.4 30.349 9.7C30.8824 9 31.149 8.21667 31.149 7.35C31.149 6.18333 30.749 5.41667 29.949 5.05C29.149 4.65 28.249 4.45 27.249 4.45C26.5824 4.45 25.9157 4.51667 25.249 4.65C24.6157 4.75 24.099 4.85 23.699 4.95C21.799 5.45 19.949 6.41666 18.149 7.85C16.349 9.25 14.699 10.9167 13.199 12.85C11.7324 14.7833 10.499 16.7833 9.49902 18.85C8.86569 20.1833 8.28236 21.8 7.74902 23.7C7.21569 25.6 6.94902 27.4667 6.94902 29.3C6.94902 30.2667 7.03236 31.2 7.19902 32.1C7.39902 32.9667 7.71569 33.7667 8.14902 34.5C8.84902 35.7 9.81569 36.5333 11.049 37C12.3157 37.4667 13.6324 37.7 14.999 37.7C16.0324 37.7 17.049 37.6167 18.049 37.45C19.0824 37.25 20.0157 37 20.849 36.7C21.9157 36.3333 22.949 35.8333 23.949 35.2C24.949 34.5333 25.8657 33.7833 26.699 32.95C27.6324 31.9833 28.4157 30.9333 29.049 29.8C29.7157 28.6667 30.149 27.4833 30.349 26.25H27.699C26.2324 26.25 24.7157 26.2667 23.149 26.3C21.5824 26.3 20.399 26.3667 19.599 26.5C19.599 26.5 19.7157 26.3 19.949 25.9C20.1824 25.4667 20.4824 24.9833 20.849 24.45C21.2157 23.8833 21.599 23.4 21.999 23C22.4324 22.5667 22.8324 22.35 23.199 22.35H37.849C37.6157 23.6167 37.199 24.5167 36.599 25.05C35.999 25.5833 35.249 25.9333 34.349 26.1C34.1824 26.5667 34.0157 27.0333 33.849 27.5C33.6824 27.9333 33.5157 28.2833 33.349 28.55C31.4824 32.3833 28.9324 35.2333 25.699 37.1C22.4657 38.9667 18.699 39.9 14.399 39.9ZM39.6107 38.3C38.6774 38.3 37.9774 37.9667 37.5107 37.3C37.0441 36.6 36.8107 35.6667 36.8107 34.5C36.8107 34.3333 36.8107 34.1667 36.8107 34C36.8107 33.8333 36.8274 33.6667 36.8607 33.5C37.0274 32.2333 37.3107 30.8 37.7107 29.2C38.1441 27.6 38.6441 25.9167 39.2107 24.15C39.5441 23.15 39.9607 21.9 40.4607 20.4C40.9941 18.8667 41.6107 17.2333 42.3107 15.5C43.0107 13.7333 43.7774 11.9833 44.6107 10.25C45.4774 8.51666 46.4274 6.95 47.4607 5.55C48.4941 4.11666 49.5774 2.96666 50.7107 2.1C51.8774 1.23333 53.1107 0.799999 54.4107 0.799999C55.4774 0.799999 56.2107 1.06667 56.6107 1.6C57.0107 2.1 57.2107 2.7 57.2107 3.4C57.2107 4.13333 57.0774 4.88333 56.8107 5.65C56.5441 6.38333 56.2774 7 56.0107 7.5C55.4107 8.7 54.6274 10.05 53.6607 11.55C52.6941 13.05 51.6774 14.45 50.6107 15.75C49.9774 16.5833 49.1941 17.5167 48.2607 18.55C47.3274 19.5833 46.4441 20.5333 45.6107 21.4C44.8107 22.2667 44.2274 22.8667 43.8607 23.2L43.0607 25.5C42.8274 26.1333 42.5941 26.8833 42.3607 27.75C42.1607 28.6167 41.9774 29.4833 41.8107 30.35C41.6774 31.1833 41.5607 31.9167 41.4607 32.55C41.4274 32.6833 41.4107 32.8167 41.4107 32.95C41.4107 33.0833 41.4107 33.2 41.4107 33.3C41.4107 34.3 41.7941 34.8 42.5607 34.8C43.0274 34.8 43.6107 34.5833 44.3107 34.15C44.9774 33.75 45.6107 33.2333 46.2107 32.6C46.8441 31.9333 47.2941 31.4333 47.5607 31.1C48.2274 30.2333 48.8607 29.3167 49.4607 28.35C50.0607 27.35 50.5774 26.4333 51.0107 25.6C51.1774 25.3333 51.2941 25.2 51.3607 25.2C51.5607 25.2 51.6607 25.4833 51.6607 26.05C51.6607 26.3167 51.6107 26.6333 51.5107 27C51.4441 27.3333 51.3274 27.65 51.1607 27.95C50.6941 28.75 50.1441 29.6333 49.5107 30.6C48.8774 31.5667 48.2274 32.5 47.5607 33.4C47.0607 34.0667 46.3607 34.7833 45.4607 35.55C44.5607 36.3167 43.5941 36.9667 42.5607 37.5C41.5274 38.0333 40.5441 38.3 39.6107 38.3ZM44.8607 20.35C46.5274 18.3833 48.2107 16.2833 49.9107 14.05C51.6441 11.7833 53.0774 9.48333 54.2107 7.15C54.2774 6.98333 54.4274 6.65 54.6607 6.15C54.8941 5.65 55.1107 5.1 55.3107 4.5C55.5107 3.86667 55.6107 3.33333 55.6107 2.9C55.6107 2.33333 55.3941 2.05 54.9607 2.05H54.6107C54.1774 2.05 53.6607 2.35 53.0607 2.95C52.4941 3.55 51.9107 4.35 51.3107 5.35C50.5441 6.61667 49.7941 8.08333 49.0607 9.75C48.3274 11.3833 47.6107 13.1167 46.9107 14.95C46.2107 16.7833 45.5274 18.5833 44.8607 20.35ZM64.5643 38.3C63.5309 38.3 62.8143 37.9 62.4143 37.1C62.0476 36.3 61.8643 35.3167 61.8643 34.15C61.8643 33.0833 61.9643 32.0333 62.1643 31C62.2643 30.5333 62.3643 30.0667 62.4643 29.6C62.5976 29.1 62.7476 28.5833 62.9143 28.05C62.3476 29.0833 61.7476 30.0833 61.1143 31.05C60.5143 32.0167 59.8976 32.8667 59.2643 33.6C58.1976 34.9 57.0643 35.9833 55.8643 36.85C54.6976 37.7167 53.5309 38.15 52.3643 38.15C51.4309 38.15 50.6309 37.8167 49.9643 37.15C49.3309 36.45 49.0143 35.25 49.0143 33.55C49.0143 31.8167 49.3143 30.0333 49.9143 28.2C50.5143 26.3667 51.3476 24.6667 52.4143 23.1C53.5143 21.5 54.7976 20.2167 56.2643 19.25C57.7643 18.2833 59.3976 17.8 61.1643 17.8C61.7309 17.8 62.3476 17.8833 63.0143 18.05C63.6809 18.2167 64.2976 18.5333 64.8643 19C65.4309 19.4333 65.8143 20.05 66.0143 20.85C66.0476 20.7833 66.0809 20.7333 66.1143 20.7C66.1809 20.6667 66.2309 20.6333 66.2643 20.6C66.7309 19.8667 67.2643 19.25 67.8643 18.75C68.4643 18.25 69.1309 18 69.8643 18C70.2309 18 70.7476 18.0167 71.4143 18.05C72.0809 18.0833 72.5643 18.0833 72.8643 18.05C72.6976 18.1833 72.4643 18.45 72.1643 18.85C71.8976 19.25 71.6476 19.6667 71.4143 20.1C71.1809 20.5 70.9976 20.8167 70.8643 21.05C69.9643 22.7833 69.1476 24.5 68.4143 26.2C67.6809 27.9 67.1143 29.5333 66.7143 31.1C66.6143 31.4333 66.5476 31.75 66.5143 32.05C66.4809 32.3167 66.4643 32.5833 66.4643 32.85C66.4643 33.7167 66.7476 34.15 67.3143 34.15C67.8476 34.15 68.5143 33.8167 69.3143 33.15C70.4809 32.2167 71.4976 31.05 72.3643 29.65C73.2643 28.25 74.0476 26.9 74.7143 25.6C74.8476 25.3667 74.9643 25.25 75.0643 25.25C75.2643 25.25 75.3643 25.5333 75.3643 26.1C75.3643 26.3667 75.3143 26.6667 75.2143 27C75.1476 27.3333 75.0309 27.65 74.8643 27.95C74.3976 28.75 73.7809 29.7333 73.0143 30.9C72.2809 32.0667 71.4476 33.2167 70.5143 34.35C69.5809 35.45 68.5976 36.3833 67.5643 37.15C66.5643 37.9167 65.5643 38.3 64.5643 38.3ZM54.6143 33.95C54.7143 33.9833 54.8643 34 55.0643 34C55.6976 34 56.3809 33.7333 57.1143 33.2C57.8476 32.6667 58.5809 31.9833 59.3143 31.15C60.0476 30.2833 60.6976 29.4167 61.2643 28.55C62.7309 26.2167 63.8143 24.4667 64.5143 23.3C65.2143 22.1333 65.6143 21.4667 65.7143 21.3C65.5476 20.7333 65.2476 20.3167 64.8143 20.05C64.4143 19.7833 63.9309 19.65 63.3643 19.65C62.6309 19.65 61.8476 19.85 61.0143 20.25C60.2143 20.65 59.5309 21.1333 58.9643 21.7C58.0976 22.5667 57.2643 23.6833 56.4643 25.05C55.6976 26.4167 55.0643 27.7667 54.5643 29.1C54.0976 30.4333 53.8643 31.55 53.8643 32.45C53.8643 33.2833 54.1143 33.7833 54.6143 33.95ZM97.6971 38.3C96.5637 38.3 95.7804 37.9667 95.3471 37.3C94.9471 36.6 94.7471 35.8 94.7471 34.9C94.7471 33.9333 94.8971 32.8167 95.1971 31.55C95.5304 30.25 95.9304 28.9167 96.3971 27.55C96.8971 26.15 97.3971 24.85 97.8971 23.65C98.0637 23.25 98.2137 22.8167 98.3471 22.35C98.5137 21.8833 98.5971 21.4667 98.5971 21.1C98.5971 20.4333 98.2971 20.1 97.6971 20.1C97.4637 20.1 97.1971 20.15 96.8971 20.25C96.5971 20.3167 96.2471 20.4667 95.8471 20.7C95.1471 21.0333 94.4804 21.5 93.8471 22.1C93.2137 22.6667 92.7637 23.1 92.4971 23.4C91.2304 25.0333 90.2637 26.8 89.5971 28.7C88.9637 30.6 88.2971 32.5333 87.5971 34.5C87.3971 35.0667 87.1971 35.65 86.9971 36.25C86.7971 36.85 86.6137 37.4333 86.4471 38H81.5471C82.1137 36.4 82.6804 34.8167 83.2471 33.25C83.8471 31.65 84.4471 30.0667 85.0471 28.5C85.4137 27.6 85.7471 26.7333 86.0471 25.9C86.3471 25.0333 86.6137 24.2333 86.8471 23.5C86.9804 23.1333 87.0971 22.75 87.1971 22.35C87.2971 21.95 87.3471 21.5833 87.3471 21.25C87.3471 20.4833 87.0137 20.1 86.3471 20.1C86.1137 20.1 85.8304 20.15 85.4971 20.25C85.1971 20.3167 84.8304 20.4667 84.3971 20.7C83.6971 21.0333 83.0304 21.5 82.3971 22.1C81.7637 22.6667 81.3304 23.1 81.0971 23.4C80.6637 23.9333 80.2471 24.5333 79.8471 25.2C79.4471 25.8333 79.0971 26.4833 78.7971 27.15C78.1304 28.5833 77.5971 29.95 77.1971 31.25C76.8304 32.5167 76.4804 33.6 76.1471 34.5C75.9471 35.0667 75.7471 35.65 75.5471 36.25C75.3471 36.85 75.1637 37.4333 74.9971 38H70.1471C70.1471 38 70.2637 37.5833 70.4971 36.75C70.7304 35.9167 71.0137 35.0833 71.3471 34.25L74.5971 25.95C74.6971 25.6833 74.8471 25.25 75.0471 24.65C75.2804 24.0167 75.5137 23.3333 75.7471 22.6C75.9804 21.8333 76.1804 21.1 76.3471 20.4C76.5137 19.6667 76.5971 19.0667 76.5971 18.6C76.5971 18.3 76.5637 18.1 76.4971 18C76.7971 18 77.1304 18 77.4971 18C77.8971 17.9667 78.2637 17.95 78.5971 17.95C79.0637 17.95 79.4971 17.9667 79.8971 18C80.3304 18.0333 80.6137 18.1167 80.7471 18.25C81.1137 18.5167 81.2971 18.9167 81.2971 19.45C81.2971 19.8833 81.2137 20.3167 81.0471 20.75C80.8804 21.15 80.7637 21.4833 80.6971 21.75C81.1637 21.3167 81.6804 20.9 82.2471 20.5C82.8137 20.1 83.6304 19.5833 84.6971 18.95C85.3637 18.5833 86.1471 18.2833 87.0471 18.05C87.9471 17.8167 88.7637 17.7 89.4971 17.7C91.2637 17.7 92.1471 18.4333 92.1471 19.9C92.1471 20.5 91.9637 21.3 91.5971 22.3C92.2971 21.6 93.0137 21 93.7471 20.5C94.5137 19.9667 95.3137 19.45 96.1471 18.95C96.8137 18.5833 97.5971 18.2833 98.4971 18.05C99.3971 17.8167 100.214 17.7 100.947 17.7C102.714 17.7 103.597 18.45 103.597 19.95C103.597 20.2833 103.53 20.6667 103.397 21.1C103.297 21.5333 103.147 22.0167 102.947 22.55C102.747 23.0833 102.464 23.8167 102.097 24.75C101.73 25.65 101.347 26.6167 100.947 27.65C100.58 28.65 100.264 29.6167 99.9971 30.55C99.7637 31.45 99.6471 32.2 99.6471 32.8C99.6471 33.1667 99.6971 33.5 99.7971 33.8C99.9304 34.0667 100.164 34.2 100.497 34.2C100.73 34.2 101.064 34.0833 101.497 33.85C102.097 33.4833 102.697 33 103.297 32.4C103.897 31.8 104.297 31.3667 104.497 31.1C105.164 30.2333 105.797 29.3167 106.397 28.35C106.997 27.35 107.514 26.4333 107.947 25.6C108.114 25.3333 108.23 25.2 108.297 25.2C108.497 25.2 108.597 25.4833 108.597 26.05C108.597 26.3167 108.547 26.6333 108.447 27C108.38 27.3333 108.264 27.65 108.097 27.95C107.63 28.75 107.08 29.6333 106.447 30.6C105.814 31.5667 105.164 32.5 104.497 33.4C104.03 34.0333 103.414 34.7333 102.647 35.5C101.88 36.2667 101.064 36.9333 100.197 37.5C99.3304 38.0333 98.4971 38.3 97.6971 38.3ZM119.889 39C118.223 39 116.673 38.85 115.239 38.55C113.806 38.25 112.606 37.75 111.639 37.05C110.973 36.55 110.456 35.9167 110.089 35.15C109.756 34.3833 109.589 33.6 109.589 32.8C109.589 31.8 109.873 30.8667 110.439 30C111.006 29.1333 111.906 28.55 113.139 28.25C113.306 28.2167 113.456 28.2 113.589 28.2C113.756 28.1667 113.906 28.15 114.039 28.15C114.706 28.15 115.289 28.3 115.789 28.6C116.323 28.9 116.689 29.25 116.889 29.65C116.756 29.75 116.573 29.9333 116.339 30.2C116.106 30.4333 115.956 30.6333 115.889 30.8C115.389 31.6333 115.139 32.4667 115.139 33.3C115.139 34.4333 115.573 35.3667 116.439 36.1C117.339 36.8 118.506 37.15 119.939 37.15C121.239 37.15 122.456 36.8333 123.589 36.2C124.756 35.5333 125.689 34.65 126.389 33.55C127.123 32.45 127.489 31.1833 127.489 29.75C127.489 28.6833 127.239 27.55 126.739 26.35C126.306 25.3167 125.706 24.4 124.939 23.6C124.206 22.8 123.506 22.05 122.839 21.35C121.939 20.3833 121.073 19.45 120.239 18.55C119.439 17.6167 118.773 16.6167 118.239 15.55C117.739 14.45 117.489 13.2167 117.489 11.85C117.489 10.55 117.756 9.28333 118.289 8.05C118.856 6.81666 119.656 5.76666 120.689 4.9C121.856 3.9 123.189 3.2 124.689 2.8C126.189 2.4 127.756 2.2 129.389 2.2C131.423 2.2 133.023 2.46667 134.189 3C135.389 3.5 136.239 4.15 136.739 4.95C137.273 5.75 137.539 6.6 137.539 7.5C137.539 8.36666 137.339 9.2 136.939 10C136.573 10.8 136.056 11.4833 135.389 12.05C134.723 12.5833 133.989 12.9167 133.189 13.05C133.056 13.0833 132.923 13.1 132.789 13.1C132.656 13.1 132.506 13.1 132.339 13.1C131.606 13.1 130.956 12.9333 130.389 12.6C129.856 12.2667 129.589 11.7 129.589 10.9C129.589 10.8 129.589 10.6833 129.589 10.55C129.623 10.4167 129.656 10.2833 129.689 10.15C130.289 10.15 130.906 9.93333 131.539 9.5C132.173 9.06667 132.589 8.58333 132.789 8.05C132.956 7.61666 133.039 7.21666 133.039 6.85C133.039 5.95 132.623 5.25 131.789 4.75C130.989 4.21666 130.039 3.95 128.939 3.95C127.639 3.95 126.473 4.23333 125.439 4.8C124.439 5.33333 123.656 6.05 123.089 6.95C122.523 7.81666 122.239 8.76667 122.239 9.8C122.239 10.8333 122.556 11.8333 123.189 12.8C123.723 13.5667 124.389 14.3667 125.189 15.2C125.989 16 126.806 16.7833 127.639 17.55C128.473 18.2833 129.189 18.9667 129.789 19.6C131.156 20.9333 132.139 22.3 132.739 23.7C133.339 25.0667 133.639 26.4167 133.639 27.75C133.639 29.2833 133.273 30.7333 132.539 32.1C131.839 33.4333 130.856 34.6167 129.589 35.65C128.323 36.6833 126.856 37.5 125.189 38.1C123.523 38.7 121.756 39 119.889 39ZM127.061 50.4C127.228 50.1667 127.444 49.75 127.711 49.15C127.978 48.5833 128.261 47.9667 128.561 47.3C128.861 46.6333 129.111 46.0667 129.311 45.6C129.878 44.2 130.528 42.4833 131.261 40.45C131.994 38.45 132.744 36.35 133.511 34.15C134.278 31.95 135.011 29.85 135.711 27.85C136.411 25.85 137.028 24.2 137.561 22.9C138.061 21.7 138.494 20.75 138.861 20.05C139.228 19.3167 139.744 18.8 140.411 18.5C141.111 18.1667 142.161 18 143.561 18H145.061C144.594 18.3333 143.978 19.1 143.211 20.3C142.478 21.4667 141.778 22.7 141.111 24C141.344 23.7 141.561 23.4167 141.761 23.15C141.961 22.85 142.178 22.5833 142.411 22.35C143.478 21.05 144.611 19.9667 145.811 19.1C147.011 18.2333 148.178 17.8 149.311 17.8C150.244 17.8 151.028 18.15 151.661 18.85C152.328 19.55 152.661 20.7333 152.661 22.4C152.661 23.9333 152.361 25.4833 151.761 27.05C151.194 28.5833 150.428 30.05 149.461 31.45C148.494 32.8167 147.428 34.0333 146.261 35.1C146.028 35.3333 145.761 35.5667 145.461 35.8C145.194 36 144.911 36.2 144.611 36.4C145.678 36.5 146.728 36.25 147.761 35.65C148.828 35.05 149.794 34.3167 150.661 33.45C151.561 32.5833 152.294 31.8 152.861 31.1C153.528 30.2333 154.194 29.2333 154.861 28.1C155.561 26.9667 156.128 25.9667 156.561 25.1C156.694 24.8667 156.811 24.75 156.911 24.75C157.178 24.75 157.311 25.05 157.311 25.65C157.311 26.1833 157.144 26.7333 156.811 27.3C156.544 27.8 156.178 28.4333 155.711 29.2C155.244 29.9667 154.828 30.6333 154.461 31.2C152.928 33.4333 151.144 35.2667 149.111 36.7C147.078 38.1333 144.628 38.85 141.761 38.85C141.528 38.85 141.278 38.85 141.011 38.85C140.778 38.85 140.528 38.8333 140.261 38.8C139.461 38.7333 138.711 38.5333 138.011 38.2C137.311 37.9 136.844 37.3167 136.611 36.45L133.811 45.2C133.444 46.3667 133.111 47.3333 132.811 48.1C132.478 48.8667 132.078 49.4333 131.611 49.8C131.111 50.2 130.394 50.4 129.461 50.4H127.061ZM139.111 36.7C139.678 36.7 140.328 36.4167 141.061 35.85C141.794 35.25 142.511 34.5167 143.211 33.65C143.944 32.75 144.561 31.8833 145.061 31.05C145.828 29.7167 146.478 28.35 147.011 26.95C147.544 25.55 147.811 24.4 147.811 23.5C147.811 22.5 147.411 22 146.611 22C145.911 22 145.144 22.3333 144.311 23C143.711 23.4667 143.028 24.15 142.261 25.05C141.528 25.95 140.794 26.9667 140.061 28.1C139.361 29.2 138.778 30.3333 138.311 31.5C137.878 32.6333 137.661 33.6667 137.661 34.6C137.661 34.7667 137.661 34.9333 137.661 35.1C137.694 35.2333 137.728 35.3833 137.761 35.55C137.928 36.3167 138.378 36.7 139.111 36.7ZM160.239 38.4C158.706 38.4 157.372 37.9167 156.239 36.95C155.139 35.9833 154.589 34.4333 154.589 32.3C154.589 30.7333 154.872 29.1 155.439 27.4C156.006 25.7 156.806 24.1167 157.839 22.65C158.906 21.1833 160.189 19.9833 161.689 19.05C163.189 18.1167 164.872 17.65 166.739 17.65C168.272 17.65 169.456 17.95 170.289 18.55C171.156 19.1167 171.772 19.8833 172.139 20.85C172.506 21.8167 172.689 22.85 172.689 23.95C172.689 24.7833 172.589 25.6333 172.389 26.5C172.222 27.3333 171.972 28.1667 171.639 29C172.206 29.6667 172.922 30 173.789 30C174.722 30 175.589 29.65 176.389 28.95C176.856 28.55 177.272 28.05 177.639 27.45C178.039 26.8167 178.389 26.2333 178.689 25.7C178.789 25.5 178.906 25.4 179.039 25.4C179.206 25.4 179.289 25.6333 179.289 26.1C179.289 26.4 179.239 26.75 179.139 27.15C179.072 27.55 178.906 27.95 178.639 28.35C178.139 29.2167 177.622 29.8833 177.089 30.35C176.556 30.7833 175.956 31.1333 175.289 31.4C174.789 31.6 174.256 31.7 173.689 31.7C172.656 31.7 171.722 31.3833 170.889 30.75C170.622 31.3167 170.289 31.9 169.889 32.5C168.922 34.1333 167.672 35.5333 166.139 36.7C164.606 37.8333 162.639 38.4 160.239 38.4ZM162.139 36.5C162.906 36.5 163.639 36.25 164.339 35.75C165.072 35.2167 165.739 34.5667 166.339 33.8C166.939 33.0333 167.456 32.2333 167.889 31.4C168.356 30.5667 168.739 29.8333 169.039 29.2C167.906 28.2333 167.339 27.0167 167.339 25.55C167.339 24.5833 167.606 23.8333 168.139 23.3C168.672 22.7667 169.406 22.5333 170.339 22.6C170.306 21.8333 170.106 21.2 169.739 20.7C169.372 20.2 168.772 19.95 167.939 19.95C167.172 19.95 166.439 20.1833 165.739 20.65C165.072 21.1167 164.439 21.7167 163.839 22.45C163.272 23.15 162.756 23.8833 162.289 24.65C161.856 25.3833 161.489 26.05 161.189 26.65C160.756 27.5167 160.356 28.5667 159.989 29.8C159.622 31.0333 159.439 32.1833 159.439 33.25C159.439 34.1833 159.622 34.9667 159.989 35.6C160.389 36.2 161.106 36.5 162.139 36.5ZM181.05 38.3C180.083 38.3 179.35 37.9167 178.85 37.15C178.616 36.7833 178.45 36.35 178.35 35.85C178.25 35.35 178.2 34.8333 178.2 34.3C178.2 33.7667 178.233 33.2333 178.3 32.7C178.366 32.1333 178.45 31.5833 178.55 31.05C178.716 30.1833 178.9 29.4 179.1 28.7C179.333 27.9667 179.566 27.2667 179.8 26.6V26.55C179.533 27.05 179.2 27.6 178.8 28.2C178.4 28.7667 178.116 29.1833 177.95 29.45C177.716 29.8167 177.533 30 177.4 30C177.266 30 177.2 29.85 177.2 29.55C177.2 28.8833 177.4 28.15 177.8 27.35C178.066 26.8167 178.433 26.1333 178.9 25.3C179.366 24.4333 179.85 23.5 180.35 22.5C180.85 21.5 181.283 20.5333 181.65 19.6H178.3C178.133 19.6 178.1 19.4667 178.2 19.2C178.3 18.9333 178.45 18.6833 178.65 18.45C178.85 18.1833 179 18.05 179.1 18.05H182.9C183.266 17.1833 183.683 16.25 184.15 15.25C184.65 14.25 185.2 13.3167 185.8 12.45C186.433 11.55 187.116 10.8167 187.85 10.25C188.583 9.68333 189.366 9.4 190.2 9.4C190.566 9.4 191.016 9.4 191.55 9.4C192.116 9.4 192.466 9.38333 192.6 9.35C191.9 9.81667 191.083 10.75 190.15 12.15C189.216 13.5167 188.2 15.4833 187.1 18.05H192.15C192.25 18.05 192.216 18.1833 192.05 18.45C191.883 18.6833 191.666 18.9333 191.4 19.2C191.166 19.4667 190.933 19.6 190.7 19.6H186.4C185.966 20.7 185.483 21.9 184.95 23.2C184.45 24.5 183.983 25.7833 183.55 27.05C183.15 28.2833 182.85 29.4167 182.65 30.45C182.516 31.0833 182.45 31.6667 182.45 32.2C182.45 33.4667 182.85 34.1 183.65 34.1C184.183 34.1 184.816 33.8333 185.55 33.3C186.283 32.7667 187.016 32.0333 187.75 31.1C188.416 30.2333 189.05 29.3 189.65 28.3C190.283 27.3 190.816 26.3833 191.25 25.55C191.383 25.3167 191.5 25.2 191.6 25.2C191.8 25.2 191.9 25.4667 191.9 26C191.9 26.2667 191.85 26.5833 191.75 26.95C191.683 27.2833 191.55 27.6167 191.35 27.95C190.883 28.75 190.333 29.6333 189.7 30.6C189.066 31.5333 188.416 32.4667 187.75 33.4C187.283 34 186.666 34.6833 185.9 35.45C185.166 36.2167 184.366 36.8833 183.5 37.45C182.666 38.0167 181.85 38.3 181.05 38.3Z" fill="white"/>
</svg>
