<svg width="71" height="80" viewBox="0 0 71 80" fill="none" xmlns="http://www.w3.org/2000/svg">
<path d="M29.1074 0.322102C18.8807 2.45766 11.2618 7.54231 5.63707 15.8303C1.18844 22.3895 -0.34557 28.0843 0.0634993 36.7791C0.319168 43.5417 1.75091 48.5246 4.66553 53.1517L6.35294 55.7448L6.30181 52.7957C6.30181 50.2026 6.65975 49.1348 9.0119 44.4569C11.6708 39.1689 11.6708 39.118 11.6708 34.2876C11.6708 30.9317 11.9777 28.4402 12.6424 26.3047C15.3525 17.7116 22.9714 11.2541 32.0732 9.83041C41.6863 8.35585 51.8108 13.6439 56.464 22.4403C58.9184 27.0674 59.3786 30.1182 58.9695 39.8807C58.5605 48.9823 59.1229 53.1008 61.2194 57.1177L62.1909 58.999L64.7476 55.0838C73.0824 42.423 72.929 27.2199 64.3897 14.9151C60.2479 8.86432 51.8108 3.01697 44.601 1.0848C40.9705 0.0678673 32.2266 -0.338905 29.1074 0.322102Z" fill="#EA4C89"/>
<path d="M30.6927 13.3387C27.2667 15.0166 23.7385 18.9827 20.9261 24.3215C19.6989 26.6605 18.0115 29.5079 17.2445 30.6774C16.4264 31.8977 15.9662 32.8638 16.2218 32.8638C16.9888 32.8638 23.2271 26.8639 26.244 23.2029C30.7438 17.7115 35.4992 14.9658 41.7887 14.1522L44.6522 13.7455L42.1466 12.8811C38.3116 11.5591 33.9141 11.7624 30.6927 13.3387Z" fill="#EA4C89"/>
<path d="M23.1247 15.5255C20.4146 17.4576 18.4204 19.4915 16.8864 21.9321C15.4546 24.1185 13.7161 29.2032 13.7161 30.9828C13.7672 32.1015 13.7672 32.1015 14.5342 31.0845C14.9944 30.5252 16.5284 27.8812 17.9602 25.2372C19.3919 22.5931 21.6418 18.983 23.0224 17.2543C24.3519 15.4746 25.3746 14.0509 25.2723 14.0509C25.17 14.0509 24.1985 14.7119 23.1247 15.5255Z" fill="#EA4C89"/>
<path d="M37.698 17.3049C32.9426 19.237 31.2551 20.5082 26.6531 25.8471C24.2498 28.6437 20.875 31.9487 19.1876 33.169C16.6309 35.0503 16.3752 35.4062 17.3979 35.4062C18.8297 35.4062 23.4828 33.8809 25.9372 32.6605C26.8065 32.2029 29.5677 29.864 32.0733 27.525C38.6184 21.3726 44.8567 18.6269 50.0212 19.6947C52.1177 20.1523 52.4756 19.9489 51.5552 18.8811C49.1008 15.932 42.7091 15.2202 37.698 17.3049Z" fill="#EA4C89"/>
<path d="M43.5272 22.3898C40.3569 23.4068 37.9536 25.0339 33.3005 29.3558C28.6473 33.7286 24.4543 36.0676 19.341 37.1353L16.0173 37.7963L18.0626 38.4065C21.2329 39.2709 25.6304 39.0675 28.7496 37.9489C30.2836 37.3387 34.8856 34.4913 38.9763 31.5931C46.8509 26.0508 50.3791 24.4237 53.4472 24.8813C55.0323 25.1356 55.1346 25.0847 54.521 24.3729C52.5779 22.0339 47.669 21.1187 43.5272 22.3898Z" fill="#EA4C89"/>
<path d="M55.6459 30.9316C55.6459 32.2028 55.1857 34.7451 54.6232 36.5248C53.396 40.3891 53.3448 42.9314 54.3675 45.4229C54.7766 46.389 55.1345 47.8635 55.1345 48.6771C55.1345 49.8466 54.93 50.1516 54.0096 50.1516C52.1176 50.1516 51.4018 50.8635 51.8108 52.2363C53.1403 56.5583 58.5093 62.7107 62.8557 64.8971C63.9295 65.4564 64.9011 65.9141 65.0033 65.9141C65.1567 65.9141 64.3386 64.948 63.2648 63.7785C57.998 58.0328 56.5151 52.4906 56.7708 39.1179C56.8731 32.2028 56.7708 29.7113 56.3106 29.2537C55.7481 28.7452 55.6459 29.0503 55.6459 30.9316Z" fill="#EA4C89"/>
<path d="M34.5787 37.8474C30.8459 41.6609 29.2608 46.7456 29.721 53.0505C30.4369 62.6097 35.6014 67.4401 50.5324 72.6264C54.6231 73.9993 58.3559 75.3722 58.8672 75.6264C60.2478 76.3891 59.941 75.0162 58.2536 72.6773C56.4128 70.1858 53.3959 68.3045 46.4417 65.4062C39.8966 62.6605 36.0616 59.2538 34.4764 54.8302C33.1981 51.1184 33.5049 45.1693 35.3457 40.0338C36.1127 37.9491 36.6241 36.1695 36.5729 36.0678C36.4707 36.0169 35.6014 36.7796 34.5787 37.8474Z" fill="#EA4C89"/>
<path d="M11.3131 44.508C8.19396 50.8638 7.88716 52.2875 8.90983 55.6942C9.72797 58.5416 10.5972 59.5077 10.2393 57.3213C9.67683 53.5078 12.3358 46.491 15.8129 42.83C16.989 41.508 17.8071 40.4911 17.6537 40.4911C17.5514 40.4911 16.631 40.186 15.7106 39.8301L13.9721 39.1182L11.3131 44.508Z" fill="#EA4C89"/>
<path d="M27.5735 42.0674C24.9146 45.6775 23.6874 50.2028 23.6874 56.2536V61.5925L25.6816 64.5416C28.6473 68.9144 32.8403 72.1177 44.2943 78.5244C48.2316 80.7108 48.5895 80.5582 47.26 77.4566C46.2885 75.2193 43.3227 72.6262 38.8741 70.033C34.7834 67.694 32.2778 65.4059 30.3348 62.3043C27.369 57.6773 26.6531 49.4401 28.7496 43.3894C29.3632 41.5081 29.7212 39.9827 29.4655 39.9827C29.261 39.9827 28.3917 40.8979 27.5735 42.0674Z" fill="#EA4C89"/>
<path d="M19.6988 41.9655C17.5511 43.3384 14.432 47.7112 13.4604 50.7111C11.773 55.6941 12.6423 61.7957 15.5058 65.1515L16.3751 66.1685L16.0171 65.1515C15.199 62.8126 14.8922 58.3381 15.3013 55.4907C15.966 50.8128 17.4489 47.101 20.568 42.3723C21.693 40.7452 21.5907 40.6943 19.6988 41.9655Z" fill="#EA4C89"/>
<path d="M22.8179 43.0332C16.4262 50.406 15.4547 61.7956 20.5169 69.2701C22.0509 71.5581 28.6983 77.6089 29.6698 77.6089C29.8744 77.6089 30.0789 77.1513 30.0789 76.592C30.0789 74.6598 28.3404 71.2531 25.7837 68.2023C21.4884 63.0668 20.3635 59.1516 21.3862 52.9483C21.693 50.9653 22.7157 47.5077 23.6361 45.1688C24.5565 42.8807 25.1701 40.9994 24.9144 40.9994C24.7099 40.9994 23.7383 41.9146 22.8179 43.0332Z" fill="#EA4C89"/>
<path d="M48.9983 55.0843C48.8449 58.1859 49.0495 59.152 50.379 61.0334C51.913 63.2198 55.6969 65.5587 58.6115 66.0672C60.7591 66.4739 60.708 65.9655 58.4069 64.4401C55.9525 62.7621 52.68 58.9995 51.4016 56.3555C50.2767 54.1691 49.1006 53.5081 48.9983 55.0843Z" fill="#EA4C89"/>
<path d="M39.7943 58.9991C39.7943 59.1008 40.2034 59.5075 40.7147 59.8635C41.4817 60.5245 41.5329 60.4736 40.8681 59.6601C40.2034 58.8465 39.7943 58.5923 39.7943 58.9991Z" fill="#EA4C89"/>
<path d="M46.5441 60.3723C46.0328 61.1858 45.4703 61.3892 44.3453 61.2366C43.5272 61.0841 42.8625 61.0841 42.8625 61.1858C42.8625 61.44 45.3169 62.3553 47.5156 62.8129L49.5099 63.2705L48.5383 61.8977C48.027 61.1858 47.5156 60.2706 47.4134 59.9146C47.26 59.5079 46.9532 59.6604 46.5441 60.3723Z" fill="#EA4C89"/>
</svg>
